<svg xmlns="http://www.w3.org/2000/svg" width="500" height="500" version="1.2" viewBox="0 0 375 375"><defs><clipPath id="a"><path d="M0 173.672h375v45.555H0Zm0 0"/></clipPath><clipPath id="c"><path d="M0 .672h375v45.555H0Zm0 0"/></clipPath><clipPath id="b"><path d="M0 0h375v47H0z"/></clipPath><clipPath id="d"><path d="M0 0h59v19H0z"/></clipPath><clipPath id="e"><path d="M0 0h46v19H0z"/></clipPath></defs><path d="M0 0h375v375H0z" style="fill:#fff;fill-opacity:1;stroke:none"/><path d="M0 0h375v375H0z" style="fill:#1e1e1e;fill-opacity:1;stroke:none"/><g style="fill:#e4e2dd;fill-opacity:1"><path d="M9.984-176.234H1.781v-2.141h47.625v2.14h-8.203c-1.074 0-2.324.274-3.75.813-1.43.531-2.68 1.602-3.75 3.203-1.062 1.606-1.594 4.074-1.594 7.406V-38.53c0 7.375 1.22 14.093 3.657 20.156 2.437 6.063 6.507 10.883 12.218 14.453 5.707 3.563 13.493 5.344 23.36 5.344 9.875 0 17.664-1.781 23.375-5.344 5.707-3.57 9.781-8.39 12.219-14.453 2.437-6.063 3.656-12.781 3.656-20.156v-126.281c0-3.333-.54-5.801-1.61-7.407-1.074-1.601-2.293-2.672-3.656-3.203-1.367-.539-2.64-.812-3.828-.812h-8.203v-2.141h47.625v2.14h-8.203c-1.074 0-2.324.274-3.75.813-1.43.531-2.68 1.602-3.75 3.203-1.074 1.606-1.61 4.074-1.61 7.406v120.22c0 8.917-1.933 17.007-5.796 24.265-3.868 7.25-9.633 13.047-17.297 17.39-7.668 4.333-17.329 6.5-28.985 6.5-11.656 0-21.383-2.167-29.172-6.5-7.78-4.343-13.605-10.14-17.468-17.39-3.868-7.258-5.797-15.348-5.797-24.266v-120.219c0-3.332-.54-5.8-1.61-7.406-1.074-1.601-2.297-2.672-3.672-3.203-1.367-.539-2.64-.812-3.828-.812Zm0 0" style="stroke:none" transform="translate(43.36 264.391)"/></g><g style="fill:#e4e2dd;fill-opacity:1"><path d="M5.344-2.14h7.328c2.851 0 5.555-.946 8.11-2.844 2.55-1.907 4.835-4.196 6.859-6.875 2.03-2.676 3.64-5.145 4.828-7.407.593-1.187 1.867-3.625 3.828-7.312a768.055 768.055 0 0 1 7.14-13.016c2.79-5 5.641-10.203 8.547-15.61a1757.41 1757.41 0 0 1 8.203-15.077c2.563-4.633 4.645-8.41 6.25-11.328l2.422-4.375s-.808-1.602-2.421-4.813a1079.13 1079.13 0 0 1-6.157-12.562 1698.242 1698.242 0 0 0-8.11-16.594c-2.917-5.883-5.745-11.594-8.483-17.125-2.731-5.531-5.075-10.285-7.032-14.266-1.96-3.988-3.234-6.578-3.828-7.765-1.2-2.375-2.664-4.868-4.39-7.485a27.08 27.08 0 0 0-6.329-6.781c-2.492-1.906-5.523-2.86-9.093-2.86H5.703v-2.14H60.47v1.969h-9.282c-1.542 0-3.058.18-4.546.531-1.48.355-2.22 1.719-2.22 4.094 0 1.312.68 3.781 2.048 7.406 1.363 3.625 3.144 7.938 5.343 12.938a1435.696 1435.696 0 0 0 7.141 15.875 834.632 834.632 0 0 0 7.656 16.312 813.795 813.795 0 0 0 6.97 14.094c2.081 4.105 3.66 7.23 4.734 9.375a941.165 941.165 0 0 1 5.703-10.61c2.613-4.82 5.523-10.234 8.734-16.234a557.91 557.91 0 0 0 9.281-18.11c2.969-6.062 5.43-11.585 7.39-16.577 1.97-5 2.954-8.813 2.954-11.438 0-2.375-.805-4.242-2.406-5.61-1.606-1.363-4.196-2.046-7.766-2.046h-9.266v-1.969h50.297v2.14h-7.312c-2.856 0-5.59.954-8.203 2.86a32.14 32.14 0 0 0-6.875 6.781c-1.961 2.617-3.531 5.11-4.719 7.485-.594 1.187-1.902 3.593-3.922 7.218a2170.83 2170.83 0 0 1-7.234 12.844 1569.056 1569.056 0 0 0-8.563 15.344 940.515 940.515 0 0 1-8.297 14.812 1672.25 1672.25 0 0 0-6.328 11.141l-2.406 4.281s.8 1.637 2.406 4.906c1.602 3.274 3.711 7.528 6.328 12.766 2.625 5.23 5.391 10.852 8.297 16.86 2.914 6 5.77 11.796 8.563 17.39 2.8 5.586 5.21 10.399 7.234 14.438 2.02 4.043 3.328 6.656 3.922 7.843 1.188 2.262 2.64 4.73 4.36 7.407a26.894 26.894 0 0 0 6.343 6.875c2.5 1.898 5.531 2.843 9.094 2.843h7.312V0H88.47v-1.969h9.281c1.664 0 3.21-.203 4.64-.61 1.426-.413 2.141-1.753 2.141-4.015 0-1.312-.687-3.836-2.062-7.578-1.367-3.75-3.211-8.207-5.531-13.375a1002.03 1002.03 0 0 0-7.485-16.328 2520.3 2520.3 0 0 0-7.86-16.594 846.364 846.364 0 0 0-6.952-14.265 3811.73 3811.73 0 0 0-4.547-9.11c-.95 1.793-2.406 4.563-4.375 8.313-1.961 3.742-4.215 8.023-6.766 12.844a1146.247 1146.247 0 0 0-7.844 15.062 380.83 380.83 0 0 0-7.406 15.25c-2.262 4.938-4.078 9.402-5.453 13.39-1.367 3.981-2.047 7.102-2.047 9.36 0 2.25.8 4.09 2.406 5.516 1.614 1.43 4.203 2.14 7.766 2.14h9.281V0H5.344Zm0 0" style="stroke:none" transform="translate(186.056 264.391)"/></g><g clip-path="url(#a)"><g clip-path="url(#b)" transform="translate(0 173)"><g clip-path="url(#c)"><path d="M0 .672h374.941v45.555H0Zm0 0" style="stroke:none;fill-rule:nonzero;fill:#1e1e1e;fill-opacity:1"/></g></g></g><path d="M0 .998h400" style="fill:none;stroke-width:2;stroke-linecap:butt;stroke-linejoin:miter;stroke:#e4e2dd;stroke-opacity:1;stroke-miterlimit:4" transform="matrix(.75 0 0 .75 37.5 218.478)"/><g style="fill:#1e1e1e;fill-opacity:1"><path d="M28.05-33.527c1.227 1.148 2.25 2.757 3.063 4.832.813 2.054 1.348 4.468 1.617 7.246.27 2.77.192 5.812-.226 9.129-.422 3.308-1.27 6.812-2.54 10.5-1.273 3.715-2.671 6.902-4.202 9.566-1.532 2.668-3.125 4.848-4.778 6.54-1.656 1.698-3.316 2.952-4.968 3.769-1.668.82-3.239 1.23-4.711 1.23-.82 0-1.586-.105-2.301-.316-1.774-.559-3.266-1.692-4.477-3.399-1.191-1.687-2.035-3.832-2.523-6.437-.512-2.84-.598-6.106-.254-9.793.344-3.676 1.102-7.645 2.27-11.914a62.499 62.499 0 0 1 1.925-5.707A38.583 38.583 0 0 1 8.551-23.7c.988-1.692 2.066-3.153 3.238-4.371 1.191-1.246 2.457-2.09 3.805-2.54.476-.16.945-.265 1.398-.32l.04.356-.29-.203c1.453-2.11 3.04-3.504 4.75-4.188 2.367-.941 4.551-.46 6.559 1.438Zm-.488.515c-1.789-1.691-3.722-2.12-5.808-1.293-1.578.633-3.055 1.942-4.43 3.93l-.09.133-.16.02a6.247 6.247 0 0 0-1.258.288c-1.234.41-2.406 1.196-3.515 2.356-1.13 1.18-2.176 2.594-3.137 4.238a37.774 37.774 0 0 0-2.555 5.317 61.767 61.767 0 0 0-1.902 5.636c-1.16 4.23-1.906 8.16-2.246 11.793-.34 3.625-.258 6.82.242 9.594.469 2.504 1.274 4.555 2.406 6.16 1.118 1.578 2.48 2.617 4.098 3.125.648.192 1.348.29 2.098.29 1.36 0 2.824-.387 4.394-1.16 1.582-.778 3.176-1.99 4.778-3.626 1.609-1.648 3.168-3.781 4.668-6.398 1.507-2.621 2.89-5.77 4.144-9.442 1.258-3.644 2.094-7.097 2.508-10.36.414-3.26.488-6.253.226-8.968-.261-2.71-.785-5.062-1.57-7.055-.777-1.976-1.738-3.5-2.89-4.574Zm.364 30.508c1.18-3.469 1.972-6.766 2.37-9.89.403-3.122.493-5.981.267-8.57-.223-2.587-.692-4.825-1.403-6.716-.7-1.87-1.562-3.297-2.586-4.27-.472-.448-1.086-.823-1.84-1.12-.707-.282-1.523-.239-2.449.133-.52.21-1.05.542-1.594.988a10.92 10.92 0 0 0-1.632 1.707l-.282-.219.078-.348c.938.215 1.844.668 2.723 1.356l.008.008c.223.187.352.425.39.722.04.305-.038.57-.23.801a1.069 1.069 0 0 1-.703.39c-.281.04-.55-.03-.8-.214h-.009l-.004-.004c-.8-.613-1.597-.945-2.382-.992l.02-.356.3.192c-1.2 1.87-2.324 4.426-3.375 7.66-1.059 3.242-1.957 7.238-2.7 11.988-.745 4.754-1.269 10.363-1.57 16.824l-.355-.015h.355c0 .304-.117.562-.343.773-.22.2-.477.301-.774.301h-.02l-.023-.004a1.156 1.156 0 0 1-.73-.375c-.215-.234-.301-.496-.262-.785l.356.05-.356-.015c.352-8.312 1.164-15.578 2.434-21.793 1.27-6.23 2.89-11.133 4.855-14.707l.309.172.129.332c-1.207.46-2.414 1.43-3.625 2.91-1.235 1.508-2.403 3.426-3.504 5.75-1.102 2.332-2.055 4.945-2.86 7.832C4.875-7.55 4.121-3.602 3.844-.16c-.274 3.433-.188 6.348.261 8.742.446 2.379 1.16 4.262 2.141 5.648.965 1.364 2.094 2.247 3.383 2.653 1.266.406 2.676.332 4.23-.223 1.582-.566 3.204-1.64 4.864-3.223 1.672-1.597 3.293-3.714 4.87-6.355 1.583-2.648 3.024-5.844 4.333-9.59Zm.672.23c-1.325 3.794-2.79 7.032-4.395 9.72-1.61 2.699-3.273 4.867-4.988 6.507-1.735 1.652-3.438 2.777-5.117 3.375-1.707.61-3.266.688-4.684.235-1.441-.454-2.691-1.43-3.75-2.922-1.039-1.473-1.793-3.446-2.258-5.926-.46-2.461-.55-5.438-.27-8.934.278-3.488 1.044-7.48 2.286-11.976.816-2.93 1.785-5.578 2.906-7.95 1.125-2.378 2.324-4.343 3.594-5.894 1.289-1.578 2.598-2.621 3.922-3.125l.906-.344-.469.848c-1.93 3.512-3.523 8.344-4.781 14.504C10.242-7.976 9.434-.75 9.082 7.527l-.004.016v.02c-.012.066.016.132.078.203.082.086.18.136.297.152l-.047.352v-.356a.43.43 0 0 0 .293-.113.333.333 0 0 0 .114-.25v-.02c.304-6.484.828-12.12 1.578-16.898.746-4.785 1.656-8.82 2.722-12.102 1.075-3.289 2.223-5.898 3.453-7.82l.114-.176.207.012c.933.058 1.86.433 2.777 1.137l-.219.28.207-.288c.102.074.2.101.297.09a.38.38 0 0 0 .25-.141.336.336 0 0 0 .07-.258.374.374 0 0 0-.14-.265l.226-.274-.218.277c-.793-.62-1.606-1.03-2.438-1.218l-.547-.125.348-.442c.57-.73 1.152-1.336 1.738-1.82.598-.492 1.192-.855 1.785-1.098 1.098-.441 2.09-.484 2.973-.132.84.332 1.531.753 2.07 1.265 1.102 1.05 2.02 2.563 2.762 4.535.73 1.95 1.211 4.254 1.442 6.903.23 2.64.144 5.55-.266 8.726-.406 3.172-1.211 6.512-2.406 10.028Zm0 0" style="stroke:none" transform="translate(132.762 213.858)"/></g><g style="fill:#1e1e1e;fill-opacity:1"><path d="M15.332-8.488c.23.152.379.37.453.664.074.304.035.574-.125.812l-.297-.195.305.187c-.207.329-.527.836-.973 1.524-.449.687-.984 1.45-1.61 2.277a36.263 36.263 0 0 1-1.991 2.414c-.711.79-1.418 1.442-2.117 1.965-.747.55-1.45.828-2.11.828-.258 0-.488-.05-.691-.152l.16-.32-.121.336c-.762-.274-1.238-.946-1.426-2.02-.172-.973-.113-2.363.172-4.176l.351.059.282.215c-.332.433-.688.879-1.07 1.34-.391.468-.81.898-1.254 1.289-.75.636-1.41.89-1.98.765C.765-.793.401-.953.202-1.152l.254-.25-.23.273c-.524-.437-.852-1.09-.977-1.95-.121-.812-.082-1.71.117-2.698A9.452 9.452 0 0 1 .45-8.637c.153-.265.38-.433.68-.508.293-.074.57-.039.832.11.262.152.43.37.508.656.074.281.039.555-.114.816-.433.727-.726 1.446-.867 2.153-.144.707-.187 1.308-.129 1.8.051.442.133.708.239.797l-.23.27.21-.285a.116.116 0 0 0-.086-.024c.008 0 .031-.015.07-.039.176-.125.301-.203.364-.234l.16.316-.238-.261c.464-.418.906-.895 1.324-1.434.422-.55.785-1.05 1.086-1.496l.004-.008.004-.004c.414-.574.761-.996 1.039-1.277.379-.379.82-.461 1.324-.246l-.14.328.116-.336c.512.184.77.574.77 1.168 0 .453-.066 1.055-.195 1.809-.25 1.441-.364 2.484-.336 3.128.023.618.07.997.148 1.137.043.086.078.145.106.184l.004.008a.312.312 0 0 0-.235-.094h.07l.067.027a.142.142 0 0 0-.043-.012.324.324 0 0 0 .094-.03c.117-.048.27-.141.457-.274.402-.29.941-.762 1.61-1.414 1.347-1.305 2.91-3.39 4.687-6.25l.304.191-.308-.18a.96.96 0 0 1 .695-.492c.29-.054.559-.011.813.133l.011.008Zm-.395.59.2-.297-.176.308a.477.477 0 0 0-.328-.05.288.288 0 0 0-.211.148l-.004.004-.004.008c-1.812 2.906-3.41 5.035-4.797 6.382C8.922-.719 8.36-.227 7.926.085 7.402.462 7.004.595 6.73.48l.137-.328v.356c-.14 0-.262-.078-.363-.23a2.142 2.142 0 0 1-.14-.243c-.13-.238-.204-.719-.231-1.445-.028-.695.086-1.785.344-3.278.125-.714.187-1.277.187-1.687 0-.262-.101-.426-.297-.496l-.012-.004-.007-.004c-.207-.09-.387-.059-.54.094-.253.254-.574.648-.968 1.191l-.29-.21.298.199c-.309.46-.68.972-1.114 1.535a11.564 11.564 0 0 1-1.41 1.527l-.035.031-.043.024a3.004 3.004 0 0 0-.281.183c-.305.211-.574.227-.813.047l-.007-.008-.012-.007c-.246-.211-.406-.63-.48-1.25-.067-.57-.024-1.247.136-2.028.16-.789.477-1.574.95-2.363a.355.355 0 0 0-.133-.504.41.41 0 0 0-.305-.039.36.36 0 0 0-.235.176 8.865 8.865 0 0 0-1.004 2.64c-.18.91-.214 1.727-.109 2.461.102.68.344 1.18.73 1.504l.012.008.012.012c.102.105.348.199.734.285.344.074.793-.125 1.36-.602.414-.367.808-.773 1.176-1.214.375-.45.726-.891 1.05-1.317l.637.274c-.273 1.73-.332 3.043-.172 3.94.14.802.461 1.29.965 1.474l.04.015c.1.051.222.078.37.078.504 0 1.063-.23 1.684-.691.664-.492 1.336-1.113 2.015-1.867.688-.766 1.34-1.551 1.954-2.367a38.43 38.43 0 0 0 1.578-2.235c.441-.68.761-1.183.964-1.512v-.003l.004-.008c.043-.063.055-.145.028-.246a.384.384 0 0 0-.156-.246Zm0 0" style="stroke:none" transform="translate(167.623 213.858)"/></g><g style="fill:#1e1e1e;fill-opacity:1"><path d="M32.29-22.61c.194.231.269.5.233.805-.039.305-.191.551-.453.739h-.004l-.004.003c-.449.301-.882.282-1.292-.058l.222-.274-.129.332c-.289-.113-1.004-.195-2.144-.242a124.01 124.01 0 0 0-4.407-.093c-1.765-.016-3.71-.008-5.832.015l-6.543.098-6.503.133-.008-.356.344.082a776.684 776.684 0 0 0-2.465 10.711A1008.21 1008.21 0 0 0 .765 1.023C-.32 6.227-1.16 10.496-1.753 13.832c-.594 3.332-.98 5.742-1.156 7.227l-.352-.043v-.356c.106 0 .211.024.309.074l-.156.32.086-.347c.32.082.539.273.66.574.113.282.113.555-.004.824l-.328-.14.336.117c-.157.445-.332.86-.532 1.242-.254.492-.62.742-1.093.742-.106 0-.223-.015-.352-.05l-.031-.008c-.496-.18-.774-.551-.824-1.121-.04-.442-.008-1.047.097-1.805l.352.047-.356-.031c.106-1.075.332-2.614.688-4.621.305-1.872.695-4.059 1.18-6.567.48-2.508 1.035-5.254 1.667-8.238.836-4.047 1.696-8.07 2.583-12.067.882-3.996 1.73-7.718 2.542-11.156l.344.078.008.356-3.45.078-2.96.074c-1.692.05-3.172.09-4.438.113-1.27.028-2.168.04-2.703.04-.3 0-.554-.106-.761-.313a1.029 1.029 0 0 1-.313-.762c0-.3.102-.558.313-.765.207-.207.46-.313.761-.313.528 0 1.418-.02 2.664-.058l4.422-.133L.98-23.23l3.297-.075.008.356-.344-.082a226.612 226.612 0 0 1 2.164-8.512l.344.094-.344-.086c.075-.3.243-.527.508-.676a1 1 0 0 1 .805-.11l-.098.34.086-.343c.301.074.528.246.68.511.148.258.184.536.113.829-.61 2.254-1.304 4.949-2.09 8.082l-.343-.086-.004-.356 10.129-.172c2.808-.039 5.16-.054 7.058-.054 1.903 0 3.446.023 4.625.074 1.184.05 2.082.11 2.696.172.64.066 1.101.156 1.386.27.328.132.551.296.664.488l-.304.183Zm-.548.458-.031-.047c-.035-.059-.14-.121-.32-.196-.223-.085-.621-.16-1.192-.222a48.255 48.255 0 0 0-2.656-.168c-1.168-.05-2.7-.074-4.594-.074-1.894 0-4.242.02-7.047.054l-10.593.18.113-.45c.785-3.14 1.48-5.831 2.086-8.081a.393.393 0 0 0-.04-.305.344.344 0 0 0-.234-.172l-.004-.004h-.007c-.078-.023-.164-.008-.254.043a.363.363 0 0 0-.176.23v.012a222.719 222.719 0 0 0-2.16 8.48l-.063.27-3.578.082-3.523.075-4.418.133c-1.258.039-2.153.058-2.688.058a.345.345 0 0 0-.258.106.353.353 0 0 0-.105.261.35.35 0 0 0 .105.258c.067.07.157.106.258.106.532 0 1.426-.012 2.688-.04 1.261-.023 2.742-.062 4.437-.113L.45-21.75l3.91-.086-.105.445a856.514 856.514 0 0 0-2.54 11.149A841.403 841.403 0 0 0-.866 1.82a468.766 468.766 0 0 0-1.668 8.223c-.477 2.5-.871 4.687-1.172 6.559-.356 1.988-.582 3.507-.68 4.562v.008l-.004.008c-.097.707-.129 1.254-.093 1.644.027.266.144.438.355.512l-.121.336.086-.344a.96.96 0 0 0 .18.027c.187 0 .34-.12.464-.359.18-.351.344-.734.493-1.148l.007-.024a.36.36 0 0 0-.003-.277.244.244 0 0 0-.172-.149l-.04-.007-.035-.02h.008-.402l.047-.398c.18-1.496.566-3.918 1.16-7.266C-1.859 10.367-1.02 6.09.07.875c.832-3.973 1.68-7.887 2.543-11.746.86-3.856 1.68-7.43 2.465-10.719l.063-.27 6.785-.136 6.543-.098a335.3 335.3 0 0 1 5.851-.02c1.774.016 3.25.048 4.43.098 1.215.051 2.004.149 2.371.29l.055.019.043.035c.14.117.293.125.449.02l.2.297-.208-.293a.35.35 0 0 0 .156-.247.315.315 0 0 0-.074-.257Zm0 0" style="stroke:none" transform="translate(181.203 213.858)"/></g><g style="fill:#1e1e1e;fill-opacity:1"><path d="M11.445-35.746c.387.566.41 1.629.075 3.195-.32 1.492-.98 3.332-1.977 5.52-.992 2.176-2.316 4.586-3.969 7.226l-.02.035-.105.106-.254-.25.348.082a676.19 676.19 0 0 0-1.953 8.191A579.85 579.85 0 0 0 .16 4.11c-.48 2.364-.89 4.47-1.234 6.313-.34 1.84-.586 3.312-.735 4.422l-.355-.051v-.355h.14l.063.023c.29.11.5.293.629.555.133.27.145.554.035.851-.183.492-.371.938-.562 1.34-.258.527-.621.79-1.098.79-.106 0-.223-.017-.356-.052h-.011l-.012-.008c-.332-.109-.566-.332-.71-.671-.126-.297-.145-.836-.063-1.618.078-.726.242-1.84.496-3.34.457-2.738 1.14-6.304 2.05-10.71.66-3.09 1.348-6.235 2.07-9.434.72-3.2 1.434-6.289 2.145-9.262.707-2.972 1.391-5.675 2.051-8.109a85.024 85.024 0 0 1 1.445-4.797c.332-1 .704-1.957 1.114-2.879.414-.933.843-1.707 1.289-2.32.484-.672.992-1.055 1.515-1.149.582-.101 1.043.102 1.383.61Zm-.59.398c-.164-.25-.386-.351-.664-.3-.336.058-.691.343-1.062.863-.418.574-.824 1.305-1.219 2.191-.398.899-.762 1.84-1.086 2.813a77.583 77.583 0 0 0-.867 2.758 80.662 80.662 0 0 0-.57 2.003 276.59 276.59 0 0 0-2.043 8.09 815.755 815.755 0 0 0-2.145 9.25C.48-4.48-.207-1.34-.867 1.742-1.773 6.137-2.457 9.7-2.91 12.426c-.254 1.484-.418 2.586-.492 3.297-.07.66-.067 1.082.011 1.265a.453.453 0 0 0 .278.278l-.11.336.086-.344c.07.015.133.027.18.027.18 0 .332-.129.457-.387.184-.382.363-.808.535-1.28.04-.106.04-.2-.004-.286a.423.423 0 0 0-.242-.203l.125-.336v.355h-.484l.054-.402c.153-1.117.403-2.601.743-4.453.343-1.852.753-3.957 1.234-6.324.48-2.367 1.012-4.89 1.594-7.57a542.85 542.85 0 0 1 1.843-8.2A660.69 660.69 0 0 1 4.852-20l.023-.098.145-.144.253.25-.3-.188c1.632-2.617 2.941-5 3.922-7.148.976-2.14 1.617-3.93 1.93-5.371.292-1.367.304-2.25.034-2.645Zm-4.644 10.18c1.203-2.258 2.05-4.133 2.535-5.633.488-1.492.766-2.57.84-3.226l.351.039.293.203c-.34.484-.808 1.418-1.406 2.8-.601 1.387-1.254 3.415-1.957 6.075L6.523-25Zm.629.336-.66-.258c.715-2.7 1.379-4.758 1.992-6.176.617-1.425 1.11-2.402 1.476-2.93l.645.247c-.078.707-.367 1.828-.871 3.37-.496 1.536-1.36 3.454-2.582 5.747Zm0 0" style="stroke:none" transform="translate(186.248 213.858)"/></g><g style="fill:#1e1e1e;fill-opacity:1"><path d="M16.035-8.75a.99.99 0 0 1 .559.613 1.1 1.1 0 0 1-.032.805l-.007.016a47.915 47.915 0 0 1-1.586 2.98 26.58 26.58 0 0 1-1.805 2.75c-.64.848-1.305 1.527-1.988 2.043-.719.54-1.45.809-2.184.809-.148 0-.305-.016-.476-.043h-.012C6.637.859 5.492-1.523 5.07-5.922l.356-.035.285.21A79.86 79.86 0 0 1 4.207-3.78a47.954 47.954 0 0 1-1.816 2.16l-.016.016c-.102.101-.27.261-.5.48a3.011 3.011 0 0 1-.902.582 1.38 1.38 0 0 1-1.207-.05l.16-.317-.125.332c-.766-.285-1.133-1.059-1.106-2.313l.356.008h-.356c0-.664.125-1.476.371-2.441.247-.957.594-1.918 1.047-2.887.457-.976.989-1.84 1.602-2.598.637-.785 1.355-1.316 2.152-1.59l.117.336-.129-.332c.516-.203 1.137-.238 1.86-.113.742.13 1.492.64 2.258 1.543.187.227.273.485.254.781-.02.305-.145.555-.375.746-.223.188-.485.27-.782.25a.99.99 0 0 1-.742-.37c-.527-.614-.95-.907-1.27-.88-.374.032-.687.141-.937.329-.52.379-.996.925-1.426 1.644a13.392 13.392 0 0 0-1.11 2.328c-.296.813-.503 1.57-.628 2.274-.121.68-.156 1.168-.113 1.457l-.352.054-.195-.296a1.94 1.94 0 0 0 .45-.418l.007-.008.008-.012a39.029 39.029 0 0 0 2.066-2.46A93.57 93.57 0 0 0 4.453-7.72c.125-.176.242-.343.356-.508.12-.171.23-.32.34-.457.3-.375.695-.492 1.175-.343l-.101.34.078-.348c.5.117.77.437.804.969l.004.004v.003c.075 1.63.204 2.934.391 3.914.184.97.383 1.688.598 2.157.207.445.394.742.558.886.082.075.153.125.211.16a.38.38 0 0 0 .043.02c-.008 0-.02-.004-.035-.004h.04l.034.008c.145.031.371-.05.676-.246.363-.23.8-.61 1.313-1.133 1.035-1.058 2.25-3.039 3.652-5.937.144-.293.36-.489.64-.582a.993.993 0 0 1 .84.086l-.175.308Zm-.281.656-.02-.008-.015-.011a.31.31 0 0 0-.262-.028.392.392 0 0 0-.227.215c-1.433 2.969-2.695 5.012-3.785 6.125C10.293-.62 9.41-.094 8.805-.223l.07-.347v.355c-.188 0-.418-.117-.688-.351-.242-.211-.484-.586-.734-1.125-.238-.52-.457-1.293-.652-2.32-.192-1.016-.328-2.352-.403-4.016l.356-.016-.356.027c-.011-.18-.097-.289-.257-.324l-.024-.008c-.176-.054-.312-.015-.414.11-.098.12-.2.261-.308.418-.114.164-.235.336-.364.515a78.983 78.983 0 0 1-1.64 2.192 41.603 41.603 0 0 1-2.102 2.508l-.266-.239.278.223c-.113.14-.223.258-.328.348-.102.086-.196.16-.282.218l-.464.309-.086-.55C.086-2.665.125-3.23.258-3.989c.129-.742.347-1.54.66-2.39.312-.86.7-1.677 1.168-2.454.48-.8 1.016-1.414 1.61-1.848.355-.265.788-.422 1.3-.468.563-.047 1.191.332 1.879 1.132.059.075.14.114.242.121.106.004.2-.023.281-.09a.329.329 0 0 0 .118-.242.36.36 0 0 0-.086-.277c-.653-.77-1.266-1.203-1.84-1.305-.59-.101-1.082-.078-1.477.079h-.008l-.007.003c-.668.23-1.278.688-1.828 1.368A11.682 11.682 0 0 0 .758-7.91c-.434.93-.766 1.848-1 2.762-.235.91-.352 1.664-.352 2.265v.008c-.02.918.196 1.465.645 1.633l.015.004.016.008a.715.715 0 0 0 .617.03c.262-.113.492-.257.688-.445.226-.21.386-.367.484-.464l.254.25-.266-.235a46.547 46.547 0 0 0 1.79-2.129A87.222 87.222 0 0 0 5.14-6.168l.55-.746.086.926C6.168-1.941 7.121.227 8.641.523l-.067.348.059-.348c.133.02.25.032.36.032.577 0 1.163-.223 1.757-.668.629-.473 1.246-1.11 1.844-1.903.613-.812 1.199-1.703 1.761-2.675a48.647 48.647 0 0 0 1.563-2.938l.316.156-.324-.14a.408.408 0 0 0 .008-.297.287.287 0 0 0-.164-.184Zm0 0" style="stroke:none" transform="translate(192.014 213.858)"/></g><g style="fill:#1e1e1e;fill-opacity:1"><path d="M23.504-8.785c.191.187.297.43.312.723a1 1 0 0 1-.312.804c-1.223 1.246-2.469 2.121-3.742 2.621-1.301.508-2.512.602-3.625.274h-.008l-.004-.004c-.488-.16-1-.43-1.535-.805-.555-.387-1.035-.988-1.442-1.8l.32-.16.34.093a44.379 44.379 0 0 1-1.296 4.09c-.543 1.414-1.028 2.465-1.457 3.156-.442.715-.852 1.195-1.223 1.438-.39.253-.746.378-1.07.378-.575 0-1.024-.218-1.348-.656A4.017 4.017 0 0 1 6.793.145a12.541 12.541 0 0 1-.273-.977L6.516-.84v-.008c-.079-.441-.141-.957-.196-1.55l.356-.032.3.196C6.11-.887 5.415.129 4.892.805c-.532.687-1.004 1.226-1.422 1.617l-.246-.258.254.25c-.364.363-.707.61-1.028.742-.32.13-.62.196-.894.196-.215 0-.418-.032-.606-.094a1.234 1.234 0 0 1-.48-.274l.254-.254-.196.301C-.199 2.562-.633 1.601-.77.148c-.132-1.375-.015-3.05.344-5.03.36-1.966.946-4.095 1.762-6.391v-.008l.008-.012c.11-.258.289-.45.547-.578.27-.133.55-.145.851-.031l-.125.332.098-.344c.281.082.488.266.625.555a.99.99 0 0 1 .023.84l-.328-.141.336.12C2.47-8.03 1.883-5.91 1.621-4.175c-.258 1.727-.34 3.055-.242 3.989.047.457.11.816.187 1.074.055.195.106.304.149.336l.008.004.007.007c-.058-.046-.117-.062-.175-.05.011-.004.023-.012.039-.02.097-.059.23-.164.402-.324.29-.266.613-.625.969-1.078.36-.461.808-1.094 1.348-1.895.542-.808 1.23-1.867 2.062-3.18l.3.192-.304-.18c.129-.222.3-.375.512-.457.207-.078.433-.082.687-.008.528.149.79.504.79 1.063 0 .445.027.992.074 1.64.05.649.125 1.254.222 1.825l-.347.062.343-.082c.098.414.184.719.254.906.067.176.117.29.153.344l-.297.2-.184-.31c.195-.116.461-.5.797-1.144.363-.699.738-1.547 1.125-2.547.387-1 .738-2.05 1.05-3.156.313-1.094.528-2.113.653-3.058l.004-.008v-.012c.055-.285.172-.504.36-.66.183-.156.421-.238.71-.238v.359l-.023-.355c.293-.02.535.046.726.199.192.148.313.367.368.656.402 2.059 1.203 3.27 2.41 3.633.672.203 1.465.105 2.37-.29.946-.41 1.895-1.093 2.849-2.046l.253.25-.273-.227a.944.944 0 0 1 .766-.355c.3 0 .562.11.78.332Zm-.5.5a.385.385 0 0 0-.281-.121.27.27 0 0 0-.22.097l-.023.024c-1.015 1.02-2.039 1.754-3.066 2.2-1.066.464-2.02.57-2.863.32-1.477-.45-2.446-1.84-2.903-4.184-.023-.114-.058-.192-.109-.23-.047-.04-.129-.055-.238-.051l-.012.003h-.012c-.117 0-.199.02-.254.067-.054.047-.093.129-.117.25l-.351-.067.355.047a22.399 22.399 0 0 1-.676 3.16 36.131 36.131 0 0 1-1.074 3.22 26.658 26.658 0 0 1-1.152 2.612C9.609-.167 9.258.31 8.945.496l-.289.172L8.47.387a2.346 2.346 0 0 1-.227-.489 8.802 8.802 0 0 1-.281-.992v-.011l-.004-.008a20.447 20.447 0 0 1-.23-1.895 23.02 23.02 0 0 1-.079-1.695c0-.203-.09-.328-.273-.379a.392.392 0 0 0-.238-.012.354.354 0 0 0-.153.153l-.004.003-.003.008a155.618 155.618 0 0 1-2.07 3.192C4.354-.918 3.894-.273 3.522.199A9.585 9.585 0 0 1 2.48 1.36a3.29 3.29 0 0 1-.527.418c-.258.149-.473.157-.648.024l.21-.285-.195.296C1 1.603.785.958.672-.113.566-1.105.648-2.496.918-4.281c.27-1.782.863-3.95 1.781-6.5l.004-.008.004-.012a.3.3 0 0 0-.012-.258c-.043-.093-.101-.148-.175-.168l-.012-.003-.016-.008a.36.36 0 0 0-.285.004.45.45 0 0 0-.21.222l-.329-.14.336.117C1.204-8.777.625-6.684.274-4.754-.075-2.84-.189-1.227-.064.082.052 1.305.38 2.09.914 2.434l.031.02.028.026c.035.036.101.07.203.102.113.04.242.059.379.059.18 0 .39-.047.625-.145.234-.094.5-.289.793-.586l.007-.008c.391-.367.84-.875 1.348-1.53.512-.665 1.195-1.661 2.05-2.993l.563-.875.09 1.039c.051.57.11 1.066.184 1.484l-.348.063.348-.078c.047.218.133.523.258.922.113.363.285.703.515 1.011.18.246.438.368.774.368.183 0 .41-.086.68-.262.285-.188.62-.594 1.011-1.219.406-.652.867-1.66 1.39-3.027a45.892 45.892 0 0 0 1.282-4.028l.242-.906.418.84c.352.703.758 1.215 1.215 1.535.477.336.926.57 1.348.711l-.114.34.102-.344c.96.281 2.016.195 3.164-.254 1.18-.46 2.348-1.281 3.504-2.46a.345.345 0 0 0 .105-.259.403.403 0 0 0-.105-.265Zm0 0" style="stroke:none" transform="translate(206.125 213.858)"/></g><g style="fill:#e4e2dd;fill-opacity:1"><path d="M27.813-33.266c1.187 1.106 2.175 2.672 2.968 4.703.801 2.024 1.332 4.407 1.594 7.157.27 2.742.195 5.758-.219 9.047-.418 3.28-1.261 6.757-2.531 10.421-1.262 3.696-2.652 6.864-4.172 9.5-1.512 2.645-3.086 4.801-4.719 6.47-1.636 1.675-3.261 2.91-4.875 3.702-1.617.801-3.132 1.203-4.546 1.203a7.489 7.489 0 0 1-2.204-.312c-1.699-.531-3.132-1.621-4.296-3.266-1.157-1.636-1.977-3.734-2.454-6.296-.511-2.805-.593-6.032-.25-9.688.344-3.656 1.094-7.61 2.25-11.86a63.813 63.813 0 0 1 1.907-5.656 39.056 39.056 0 0 1 2.578-5.375c.976-1.675 2.039-3.113 3.187-4.312 1.156-1.195 2.38-2.016 3.672-2.453a7.565 7.565 0 0 1 1.328-.297c1.414-2.05 2.946-3.406 4.594-4.063 2.227-.882 4.29-.425 6.188 1.375Zm.453 30.875c1.187-3.488 1.984-6.804 2.39-9.953.407-3.156.492-6.039.266-8.656-.23-2.613-.703-4.879-1.422-6.797-.719-1.926-1.61-3.394-2.672-4.406-.512-.477-1.168-.875-1.969-1.188-.793-.32-1.695-.28-2.703.125-.554.23-1.117.578-1.687 1.047-.574.461-1.137 1.043-1.688 1.75.883.211 1.742.64 2.578 1.297a.715.715 0 0 1 .266.5c.02.2-.031.371-.156.516a.74.74 0 0 1-.469.281.765.765 0 0 1-.547-.156c-.867-.657-1.726-1.008-2.578-1.063-1.219 1.899-2.36 4.477-3.422 7.735-1.062 3.261-1.969 7.277-2.719 12.047-.742 4.773-1.261 10.39-1.562 16.859a.656.656 0 0 1-.235.516.77.77 0 0 1-.53.203A.81.81 0 0 1 8.89 8c-.137-.148-.196-.309-.172-.484C9.07-.785 9.879-8.031 11.14-14.22c1.27-6.195 2.879-11.066 4.828-14.61-1.262.481-2.524 1.485-3.781 3.017-1.25 1.53-2.434 3.476-3.547 5.828-1.106 2.343-2.063 4.968-2.875 7.875-1.243 4.48-2 8.453-2.282 11.921-.273 3.458-.183 6.399.266 8.829.457 2.437 1.191 4.367 2.203 5.796 1.008 1.426 2.195 2.352 3.563 2.782 1.343.437 2.828.363 4.453-.219 1.633-.586 3.3-1.688 5-3.313 1.695-1.617 3.343-3.757 4.937-6.421 1.594-2.668 3.047-5.887 4.36-9.657Zm0 0" style="stroke:none" transform="translate(132.762 213.858)"/></g><g style="fill:#e4e2dd;fill-opacity:1"><path d="M15.14-8.188c.145.094.243.247.297.454.051.199.024.375-.078.53-.199.325-.523.829-.968 1.516-.438.68-.97 1.43-1.594 2.25a33.645 33.645 0 0 1-1.969 2.391C10.128-.273 9.438.36 8.75.86c-.68.508-1.309.766-1.89.766-.2 0-.376-.04-.532-.11-.625-.23-1.023-.808-1.187-1.734-.168-.937-.11-2.289.171-4.062-.335.43-.687.87-1.062 1.328-.375.45-.781.867-1.219 1.25-.656.555-1.215.781-1.672.687-.449-.101-.75-.234-.906-.39-.457-.375-.738-.946-.844-1.719-.113-.77-.078-1.629.11-2.578a8.97 8.97 0 0 1 1.047-2.75.673.673 0 0 1 .437-.344.763.763 0 0 1 .578.078c.176.094.29.242.344.438a.696.696 0 0 1-.078.547c-.461.761-.766 1.515-.922 2.265C.977-4.727.937-4.094 1-3.562c.063.53.18.87.36 1.015.1.086.238.07.406-.047.164-.113.273-.187.328-.219.476-.425.93-.914 1.36-1.468.425-.563.788-1.067 1.093-1.516.406-.562.738-.973 1-1.234.27-.27.582-.328.937-.172.352.125.532.402.532.828 0 .43-.063 1.012-.188 1.75-.25 1.469-.367 2.54-.344 3.203.032.668.094 1.102.188 1.297.101.188.164.281.187.281.313.125 1.149-.472 2.516-1.797 1.363-1.332 2.941-3.441 4.734-6.328a.612.612 0 0 1 .454-.312.825.825 0 0 1 .578.094Zm0 0" style="stroke:none" transform="translate(167.623 213.858)"/></g><g style="fill:#e4e2dd;fill-opacity:1"><path d="M32.016-22.39c.125.156.175.34.156.546a.67.67 0 0 1-.297.485c-.313.199-.605.187-.875-.032-.336-.132-1.09-.222-2.266-.265-1.18-.051-2.652-.082-4.422-.094-1.773-.02-3.718-.016-5.843.016-2.125.023-4.309.054-6.547.093-2.23.032-4.399.075-6.5.125A843.297 843.297 0 0 0 2.953-10.78C2.098-6.926 1.253-3.016.422.953-.672 6.16-1.516 10.43-2.11 13.766c-.594 3.343-.977 5.757-1.157 7.25.055 0 .106.015.157.047.199.039.34.156.421.343a.738.738 0 0 1 0 .563c-.156.426-.328.82-.515 1.187-.188.364-.445.547-.781.547-.07 0-.16-.012-.266-.031-.352-.125-.547-.399-.578-.813-.04-.418-.008-.996.094-1.734.093-1.063.32-2.59.671-4.578.305-1.875.7-4.07 1.188-6.578.48-2.5 1.031-5.242 1.656-8.219C-.383-2.3.473-6.32 1.36-10.313c.883-4 1.735-7.718 2.547-11.156-1.21.024-2.36.047-3.453.078-1.082.024-2.066.043-2.953.063-1.695.055-3.176.094-4.438.125-1.269.023-2.171.031-2.703.031a.68.68 0 0 1-.5-.203.706.706 0 0 1-.218-.516c0-.195.074-.363.218-.5a.666.666 0 0 1 .5-.218c.532 0 1.43-.016 2.688-.047l4.406-.14c1.219-.032 2.399-.056 3.531-.079 1.133-.031 2.235-.055 3.297-.078.383-1.613.758-3.133 1.125-4.563.364-1.437.711-2.75 1.047-3.937a.716.716 0 0 1 .344-.453.663.663 0 0 1 .531-.078.683.683 0 0 1 .438.343c.101.18.132.368.093.563a390.249 390.249 0 0 0-2.093 8.094c3.945-.082 7.32-.141 10.125-.172 2.812-.04 5.164-.063 7.062-.063 1.895 0 3.43.028 4.61.078 1.175.055 2.066.11 2.671.172.602.063 1.032.149 1.282.25.257.094.425.203.5.328Zm0 0" style="stroke:none" transform="translate(181.203 213.858)"/></g><g style="fill:#e4e2dd;fill-opacity:1"><path d="M11.156-35.547c.32.48.328 1.453.016 2.922-.313 1.469-.965 3.29-1.953 5.453C8.227-25.016 6.91-22.625 5.266-20c-.024.031-.043.059-.063.078a715.715 715.715 0 0 0-1.953 8.203 532.686 532.686 0 0 0-1.844 8.203A467.1 467.1 0 0 0-.187 4.047c-.477 2.363-.891 4.469-1.235 6.312a89.646 89.646 0 0 0-.734 4.438h.062c.211.07.36.195.453.375.086.176.09.367.016.578-.176.477-.36.91-.547 1.297-.195.394-.457.594-.781.594-.082 0-.172-.012-.266-.032a.87.87 0 0 1-.5-.484c-.101-.242-.113-.719-.031-1.438.074-.718.234-1.824.484-3.312.461-2.742 1.141-6.309 2.047-10.703A861.4 861.4 0 0 1 .844-7.75 777.42 777.42 0 0 1 3-17.016c.707-2.968 1.39-5.664 2.047-8.093.125-.477.312-1.149.562-2.016.258-.863.551-1.785.875-2.766.332-.988.696-1.937 1.094-2.843.406-.914.82-1.672 1.25-2.266.438-.594.867-.926 1.297-1 .438-.07.781.078 1.031.453ZM6.531-25c1.207-2.281 2.055-4.176 2.547-5.688.5-1.519.785-2.617.86-3.296-.356.5-.836 1.453-1.438 2.859-.605 1.406-1.262 3.45-1.969 6.125Zm0 0" style="stroke:none" transform="translate(186.248 213.858)"/></g><g style="fill:#e4e2dd;fill-opacity:1"><path d="M15.89-8.422c.176.074.297.211.36.406a.775.775 0 0 1-.016.547 49.47 49.47 0 0 1-1.578 2.953 24.054 24.054 0 0 1-1.781 2.72c-.617.823-1.25 1.48-1.906 1.968-.656.488-1.32.734-1.985.734-.125 0-.261-.011-.406-.031-1.7-.336-2.75-2.61-3.156-6.828-.43.586-.93 1.234-1.5 1.953a42.42 42.42 0 0 1-1.797 2.14c-.105.106-.273.266-.5.485-.219.21-.484.375-.797.5a1.054 1.054 0 0 1-.906-.031c-.602-.227-.895-.89-.875-1.985 0-.625.121-1.406.36-2.343.241-.938.577-1.88 1.015-2.829.445-.945.969-1.785 1.562-2.515.602-.738 1.27-1.235 2-1.485.457-.175 1.016-.207 1.672-.093.657.117 1.336.59 2.047 1.422.125.148.18.324.172.53a.64.64 0 0 1-.25.485.72.72 0 0 1-.531.188.746.746 0 0 1-.5-.25c-.606-.707-1.133-1.04-1.578-1-.438.031-.809.164-1.11.39-.554.407-1.058.993-1.515 1.75-.461.75-.84 1.547-1.141 2.391-.305.836-.516 1.61-.64 2.328C.483-3.203.444-2.68.5-2.359c.07-.04.148-.098.234-.172.094-.082.192-.188.297-.313A42.71 42.71 0 0 0 3.11-5.328c.633-.82 1.176-1.55 1.625-2.188.133-.175.254-.343.36-.5a5.79 5.79 0 0 1 .328-.437c.207-.258.473-.336.797-.235.332.075.508.29.531.641.07 1.649.203 2.969.39 3.969.196 1 .41 1.75.641 2.25.227.492.442.824.64 1 .196.18.349.265.454.265.477.094 1.25-.398 2.313-1.484 1.062-1.094 2.3-3.101 3.718-6.031a.752.752 0 0 1 .438-.406.647.647 0 0 1 .547.062Zm0 0" style="stroke:none" transform="translate(192.014 213.858)"/></g><g style="fill:#e4e2dd;fill-opacity:1"><path d="M23.25-8.531a.716.716 0 0 1 .219.5.639.639 0 0 1-.219.515c-1.188 1.22-2.398 2.07-3.625 2.547-1.219.48-2.352.57-3.39.266-.462-.156-.946-.41-1.454-.766-.5-.351-.937-.906-1.312-1.656a40.255 40.255 0 0 1-1.297 4.047C11.64-1.68 11.164-.648 10.75.016c-.418.675-.793 1.117-1.125 1.328-.324.218-.61.328-.86.328-.46 0-.812-.172-1.062-.516A4.04 4.04 0 0 1 7.125.031a11.643 11.643 0 0 1-.266-.937 19.338 19.338 0 0 1-.187-1.516c-.856 1.336-1.543 2.336-2.063 3-.523.676-.984 1.203-1.39 1.578-.324.332-.625.555-.906.672-.282.113-.532.172-.75.172-.18 0-.344-.027-.5-.078a.926.926 0 0 1-.344-.188C.082 2.328-.297 1.454-.421.11c-.126-1.332-.009-2.972.343-4.921.351-1.946.937-4.063 1.75-6.344a.719.719 0 0 1 .375-.39.705.705 0 0 1 .578-.032c.176.055.305.18.39.375a.602.602 0 0 1 .016.547c-.906 2.531-1.496 4.68-1.765 6.437-.262 1.75-.344 3.11-.25 4.078.101.957.27 1.508.5 1.657.101.07.343-.07.718-.422.301-.274.633-.64 1-1.11.375-.468.832-1.109 1.375-1.921a211.87 211.87 0 0 0 2.063-3.188c.176-.3.441-.398.797-.297.351.106.531.344.531.719 0 .46.023 1.016.078 1.672.05.656.129 1.277.235 1.86.093.429.175.745.25.952.082.2.148.332.203.406.25-.148.554-.57.921-1.28.376-.708.754-1.567 1.141-2.579.395-1.02.75-2.082 1.063-3.187.32-1.114.546-2.157.671-3.125.07-.395.313-.594.72-.594.405-.031.644.156.718.562.426 2.2 1.313 3.5 2.656 3.907.758.23 1.63.132 2.61-.297.988-.438 1.976-1.145 2.968-2.125a.59.59 0 0 1 .485-.235c.207 0 .383.079.531.235Zm0 0" style="stroke:none" transform="translate(206.125 213.858)"/></g><g clip-path="url(#d)" transform="translate(86 237)"><g style="fill:#e4e2dd;fill-opacity:1"><path d="M.516 0v-4.328H1.5v3.406h1.89V0Zm0 0" style="stroke:none" transform="translate(11.553 7.334)"/></g><g style="fill:#e4e2dd;fill-opacity:1"><path d="M2.297.094c-.387 0-.715-.074-.985-.219a1.714 1.714 0 0 1-.625-.656c-.148-.281-.218-.614-.218-1v-2.547h.984v2.484c0 .668.281 1 .844 1 .55 0 .828-.332.828-1v-2.484h.984v2.547c0 .386-.078.718-.234 1-.148.281-.355.5-.625.656-.262.145-.578.219-.953.219Zm0 0" style="stroke:none" transform="translate(16.848 7.334)"/></g><g style="fill:#e4e2dd;fill-opacity:1"><path d="M.172 0 1.64-2.219.234-4.329H1.36l.516.798.406.61.922-1.407h1.11l-1.391 2.11L4.39 0H3.234l-.593-.922-.36-.547-.36.547L1.329 0Zm0 0" style="stroke:none" transform="translate(23.157 7.334)"/></g><g style="fill:#e4e2dd;fill-opacity:1"><path d="M2.297.094c-.387 0-.715-.074-.985-.219a1.714 1.714 0 0 1-.625-.656c-.148-.281-.218-.614-.218-1v-2.547h.984v2.484c0 .668.281 1 .844 1 .55 0 .828-.332.828-1v-2.484h.984v2.547c0 .386-.078.718-.234 1-.148.281-.355.5-.625.656-.262.145-.578.219-.953.219Zm0 0" style="stroke:none" transform="translate(29.447 7.334)"/></g><g style="fill:#e4e2dd;fill-opacity:1"><path d="M.516 0v-4.328h1.859c.32 0 .602.062.844.187.25.118.437.29.562.516.133.219.203.48.203.781 0 .324-.074.602-.218.828a1.26 1.26 0 0 1-.594.516l.89 1.5h-1.14l-.766-1.344H1.5V0Zm.968-2.172h.75c.25 0 .438-.055.563-.172.133-.113.203-.273.203-.484 0-.219-.07-.379-.203-.485-.125-.113-.313-.171-.563-.171h-.75Zm0 0" style="stroke:none" transform="translate(35.756 7.334)"/></g><g style="fill:#e4e2dd;fill-opacity:1"><path d="M1.656 0v-1.516L.063-4.328h1.109l.547 1 .422.781.437-.781.531-1h1.11L2.64-1.531V0Zm0 0" style="stroke:none" transform="translate(41.842 7.334)"/></g><g style="fill:#e4e2dd;fill-opacity:1"><path d="M.516 0v-4.328h2.843v.828H1.5v.89h1.703v.829H1.5v.953h1.938V0Zm0 0" style="stroke:none" transform="translate(1.148 15.58)"/></g><g style="fill:#e4e2dd;fill-opacity:1"><path d="M.172 0 1.64-2.219.234-4.329H1.36l.516.798.406.61.922-1.407h1.11l-1.391 2.11L4.39 0H3.234l-.593-.922-.36-.547-.36.547L1.329 0Zm0 0" style="stroke:none" transform="translate(6.628 15.58)"/></g><g style="fill:#e4e2dd;fill-opacity:1"><path d="M.516 0v-4.328h1.703c.344 0 .644.062.906.187.258.125.457.309.594.547.144.23.219.508.219.828 0 .313-.075.59-.22.829a1.44 1.44 0 0 1-.593.546 2.076 2.076 0 0 1-.906.188H1.5V0ZM1.5-2.047h.64c.25 0 .442-.062.579-.187.144-.125.219-.301.219-.532a.647.647 0 0 0-.22-.515c-.136-.125-.327-.188-.577-.188H1.5Zm0 0" style="stroke:none" transform="translate(12.918 15.58)"/></g><g style="fill:#e4e2dd;fill-opacity:1"><path d="M.516 0v-4.328h2.843v.828H1.5v.89h1.703v.829H1.5v.953h1.938V0Zm0 0" style="stroke:none" transform="translate(18.763 15.58)"/></g><g style="fill:#e4e2dd;fill-opacity:1"><path d="M.516 0v-4.328h1.859c.32 0 .602.062.844.187.25.118.437.29.562.516.133.219.203.48.203.781 0 .324-.074.602-.218.828a1.26 1.26 0 0 1-.594.516l.89 1.5h-1.14l-.766-1.344H1.5V0Zm.968-2.172h.75c.25 0 .438-.055.563-.172.133-.113.203-.273.203-.484 0-.219-.07-.379-.203-.485-.125-.113-.313-.171-.563-.171h-.75Zm0 0" style="stroke:none" transform="translate(24.243 15.58)"/></g><g style="fill:#e4e2dd;fill-opacity:1"><path d="M.516 0v-4.328H1.5V0Zm0 0" style="stroke:none" transform="translate(30.33 15.58)"/></g><g style="fill:#e4e2dd;fill-opacity:1"><path d="M.516 0v-4.328h2.843v.828H1.5v.89h1.703v.829H1.5v.953h1.938V0Zm0 0" style="stroke:none" transform="translate(34.084 15.58)"/></g><g style="fill:#e4e2dd;fill-opacity:1"><path d="M.516 0v-4.328h.843l1.907 2.625v-2.625h.984V0h-.844L1.5-2.656V0Zm0 0" style="stroke:none" transform="translate(39.564 15.58)"/></g><g style="fill:#e4e2dd;fill-opacity:1"><path d="M2.5.094c-.438 0-.828-.094-1.172-.281a2.069 2.069 0 0 1-.781-.797 2.437 2.437 0 0 1-.281-1.188c0-.437.093-.82.28-1.156.188-.344.446-.61.782-.797A2.332 2.332 0 0 1 2.5-4.422a2.3 2.3 0 0 1 1 .219c.313.137.57.336.781.594.207.25.352.554.438.906H3.703a1.072 1.072 0 0 0-.453-.563 1.24 1.24 0 0 0-.719-.218c-.242 0-.46.058-.656.171-.188.106-.34.258-.453.454-.106.199-.156.43-.156.687 0 .262.05.492.156.688.113.199.266.355.453.468.188.118.406.172.656.172.281 0 .524-.07.735-.219.218-.144.375-.343.468-.593H4.75a2.152 2.152 0 0 1-.422.922c-.21.261-.469.464-.781.609A2.474 2.474 0 0 1 2.5.094Zm0 0" style="stroke:none" transform="translate(46.058 15.58)"/></g><g style="fill:#e4e2dd;fill-opacity:1"><path d="M.516 0v-4.328h2.843v.828H1.5v.89h1.703v.829H1.5v.953h1.938V0Zm0 0" style="stroke:none" transform="translate(52.781 15.58)"/></g></g><g clip-path="url(#e)" transform="translate(233 240)"><g style="fill:#e4e2dd;fill-opacity:1"><path d="M.266 0v-.719l1.968-2.719H.328v-.89h3.188v.703L1.546-.891h2.016V0Zm0 0" style="stroke:none" transform="translate(11.242 7.334)"/></g><g style="fill:#e4e2dd;fill-opacity:1"><path d="M.516 0v-4.328h2.843v.828H1.5v.89h1.703v.829H1.5v.953h1.938V0Zm0 0" style="stroke:none" transform="translate(16.796 7.334)"/></g><g style="fill:#e4e2dd;fill-opacity:1"><path d="M.516 0v-4.328h1.859c.32 0 .602.062.844.187.25.118.437.29.562.516.133.219.203.48.203.781 0 .324-.074.602-.218.828a1.26 1.26 0 0 1-.594.516l.89 1.5h-1.14l-.766-1.344H1.5V0Zm.968-2.172h.75c.25 0 .438-.055.563-.172.133-.113.203-.273.203-.484 0-.219-.07-.379-.203-.485-.125-.113-.313-.171-.563-.171h-.75Zm0 0" style="stroke:none" transform="translate(22.276 7.334)"/></g><g style="fill:#e4e2dd;fill-opacity:1"><path d="M2.578.094a2.52 2.52 0 0 1-1.203-.281 2.151 2.151 0 0 1-.813-.797 2.32 2.32 0 0 1-.296-1.188c0-.437.097-.82.296-1.156.196-.344.47-.61.813-.797a2.441 2.441 0 0 1 1.203-.297c.445 0 .844.102 1.188.297.351.188.629.453.828.797.195.336.297.719.297 1.156 0 .45-.102.844-.297 1.188-.2.336-.477.601-.828.796a2.447 2.447 0 0 1-1.188.282ZM1.266-2.172a1.312 1.312 0 0 0 .625 1.156c.195.118.425.172.687.172.258 0 .485-.054.672-.172.195-.113.348-.27.453-.468a1.35 1.35 0 0 0 .172-.688 1.37 1.37 0 0 0-.172-.687 1.101 1.101 0 0 0-.453-.454 1.282 1.282 0 0 0-.672-.171 1.35 1.35 0 0 0-.687.171c-.188.106-.34.258-.454.454-.117.199-.171.43-.171.687Zm0 0" style="stroke:none" transform="translate(28.363 7.334)"/></g><g style="fill:#e4e2dd;fill-opacity:1"><path d="M.516 0v-4.328h1.937c.445 0 .797.105 1.047.312.258.211.39.493.39.844 0 .211-.046.399-.14.563a.961.961 0 0 1-.375.375c.207.093.367.23.484.406.114.18.172.383.172.61 0 .25-.062.468-.187.655-.125.18-.297.32-.516.422A1.94 1.94 0 0 1 2.563 0Zm.968-.781h.922c.196 0 .348-.04.453-.125a.506.506 0 0 0 .157-.39.466.466 0 0 0-.157-.376c-.105-.094-.257-.14-.453-.14h-.922Zm0-1.781h.829c.187 0 .328-.04.421-.126a.489.489 0 0 0 .157-.374.444.444 0 0 0-.157-.36c-.093-.082-.234-.125-.421-.125h-.829Zm0 0" style="stroke:none" transform="translate(.942 15.58)"/></g><g style="fill:#e4e2dd;fill-opacity:1"><path d="M2.297.094c-.387 0-.715-.074-.985-.219a1.714 1.714 0 0 1-.625-.656c-.148-.281-.218-.614-.218-1v-2.547h.984v2.484c0 .668.281 1 .844 1 .55 0 .828-.332.828-1v-2.484h.984v2.547c0 .386-.078.718-.234 1-.148.281-.355.5-.625.656-.262.145-.578.219-.953.219Zm0 0" style="stroke:none" transform="translate(6.935 15.58)"/></g><g style="fill:#e4e2dd;fill-opacity:1"><path d="M.516 0v-4.328H1.5v3.406h1.89V0Zm0 0" style="stroke:none" transform="translate(13.244 15.58)"/></g><g style="fill:#e4e2dd;fill-opacity:1"><path d="M.516 0v-4.328H1.5v3.406h1.89V0Zm0 0" style="stroke:none" transform="translate(18.538 15.58)"/></g><g style="fill:#e4e2dd;fill-opacity:1"><path d="M2.031.094c-.367 0-.68-.059-.937-.172a1.469 1.469 0 0 1-.61-.516 1.394 1.394 0 0 1-.218-.781h.968c0 .2.07.36.22.484.144.118.331.172.562.172.207 0 .367-.039.484-.125a.388.388 0 0 0 .188-.344c0-.144-.075-.265-.22-.359-.136-.101-.359-.187-.671-.25-.5-.101-.875-.266-1.125-.484-.242-.219-.36-.504-.36-.86 0-.394.141-.707.422-.937.29-.227.688-.344 1.188-.344.344 0 .64.063.89.188.25.117.442.28.579.5.144.21.218.46.218.75h-.953c0-.196-.062-.348-.187-.454-.125-.113-.305-.171-.531-.171-.211 0-.375.043-.5.125a.36.36 0 0 0-.172.328c0 .136.066.25.203.344.133.085.363.167.687.25.54.124.93.296 1.172.515.238.211.36.485.36.828 0 .407-.153.73-.454.969-.293.23-.695.344-1.203.344Zm0 0" style="stroke:none" transform="translate(23.833 15.58)"/></g><g style="fill:#e4e2dd;fill-opacity:1"><path d="M3.203 0v-1.75H1.5V0H.516v-4.328H1.5v1.656h1.703v-1.656h.985V0Zm0 0" style="stroke:none" transform="translate(29.53 15.58)"/></g><g style="fill:#e4e2dd;fill-opacity:1"><path d="M.516 0v-4.328H1.5V0Zm0 0" style="stroke:none" transform="translate(35.962 15.58)"/></g><g style="fill:#e4e2dd;fill-opacity:1"><path d="M1.563 0v-3.406H.188v-.922h3.734v.922H2.547V0Zm0 0" style="stroke:none" transform="translate(39.716 15.58)"/></g></g></svg>
