<svg xmlns="http://www.w3.org/2000/svg" xmlns:xlink="http://www.w3.org/1999/xlink" width="500" zoomAndPan="magnify" viewBox="0 0 375 374.999991" height="500" preserveAspectRatio="xMidYMid meet" version="1.2"><defs><clipPath id="be8d1be61f"><path d="M 0 173.671875 L 375 173.671875 L 375 219.226562 L 0 219.226562 Z M 0 173.671875 "/></clipPath><clipPath id="56e1d98056"><path d="M 0 0.671875 L 375 0.671875 L 375 46.226562 L 0 46.226562 Z M 0 0.671875 "/></clipPath><clipPath id="06169ba29e"><rect x="0" width="375" y="0" height="47"/></clipPath><clipPath id="143b74b30f"><rect x="0" width="46" y="0" height="19"/></clipPath><clipPath id="7f1b38f3b4"><rect x="0" width="58" y="0" height="19"/></clipPath></defs><g id="2d25ce9424"><rect x="0" width="375" y="0" height="374.999991" style="fill:#ffffff;fill-opacity:1;stroke:none;"/><rect x="0" width="375" y="0" height="374.999991" style="fill:#1e1e1e;fill-opacity:1;stroke:none;"/><g style="fill:#e4e2dd;fill-opacity:1;"><g transform="translate(43.359377, 264.391125)"><path style="stroke:none" d="M 9.984375 -176.234375 L 1.78125 -176.234375 L 1.78125 -178.375 L 49.40625 -178.375 L 49.40625 -176.234375 L 41.203125 -176.234375 C 40.128906 -176.234375 38.878906 -175.960938 37.453125 -175.421875 C 36.023438 -174.890625 34.773438 -173.820312 33.703125 -172.21875 C 32.640625 -170.613281 32.109375 -168.144531 32.109375 -164.8125 L 32.109375 -38.53125 C 32.109375 -31.15625 33.328125 -24.4375 35.765625 -18.375 C 38.203125 -12.3125 42.273438 -7.492188 47.984375 -3.921875 C 53.691406 -0.359375 61.476562 1.421875 71.34375 1.421875 C 81.21875 1.421875 89.007812 -0.359375 94.71875 -3.921875 C 100.425781 -7.492188 104.5 -12.3125 106.9375 -18.375 C 109.375 -24.4375 110.59375 -31.15625 110.59375 -38.53125 L 110.59375 -164.8125 C 110.59375 -168.144531 110.054688 -170.613281 108.984375 -172.21875 C 107.910156 -173.820312 106.691406 -174.890625 105.328125 -175.421875 C 103.960938 -175.960938 102.6875 -176.234375 101.5 -176.234375 L 93.296875 -176.234375 L 93.296875 -178.375 L 140.921875 -178.375 L 140.921875 -176.234375 L 132.71875 -176.234375 C 131.644531 -176.234375 130.394531 -175.960938 128.96875 -175.421875 C 127.539062 -174.890625 126.289062 -173.820312 125.21875 -172.21875 C 124.144531 -170.613281 123.609375 -168.144531 123.609375 -164.8125 L 123.609375 -44.59375 C 123.609375 -35.675781 121.675781 -27.585938 117.8125 -20.328125 C 113.945312 -13.078125 108.179688 -7.28125 100.515625 -2.9375 C 92.847656 1.394531 83.1875 3.5625 71.53125 3.5625 C 59.875 3.5625 50.148438 1.394531 42.359375 -2.9375 C 34.578125 -7.28125 28.753906 -13.078125 24.890625 -20.328125 C 21.023438 -27.585938 19.09375 -35.675781 19.09375 -44.59375 L 19.09375 -164.8125 C 19.09375 -168.144531 18.554688 -170.613281 17.484375 -172.21875 C 16.410156 -173.820312 15.1875 -174.890625 13.8125 -175.421875 C 12.445312 -175.960938 11.171875 -176.234375 9.984375 -176.234375 Z M 9.984375 -176.234375 "/></g></g><g style="fill:#e4e2dd;fill-opacity:1;"><g transform="translate(186.056182, 264.391125)"><path style="stroke:none" d="M 5.34375 -2.140625 L 12.671875 -2.140625 C 15.523438 -2.140625 18.226562 -3.085938 20.78125 -4.984375 C 23.332031 -6.890625 25.617188 -9.179688 27.640625 -11.859375 C 29.671875 -14.535156 31.28125 -17.003906 32.46875 -19.265625 C 33.0625 -20.453125 34.335938 -22.890625 36.296875 -26.578125 C 38.265625 -30.265625 40.644531 -34.601562 43.4375 -39.59375 C 46.226562 -44.59375 49.078125 -49.796875 51.984375 -55.203125 C 54.898438 -60.617188 57.632812 -65.644531 60.1875 -70.28125 C 62.75 -74.914062 64.832031 -78.691406 66.4375 -81.609375 C 68.050781 -84.523438 68.859375 -85.984375 68.859375 -85.984375 C 68.859375 -85.984375 68.050781 -87.585938 66.4375 -90.796875 C 64.832031 -94.003906 62.78125 -98.191406 60.28125 -103.359375 C 57.789062 -108.535156 55.085938 -114.066406 52.171875 -119.953125 C 49.253906 -125.835938 46.425781 -131.546875 43.6875 -137.078125 C 40.957031 -142.609375 38.613281 -147.363281 36.65625 -151.34375 C 34.695312 -155.332031 33.421875 -157.921875 32.828125 -159.109375 C 31.628906 -161.484375 30.164062 -163.976562 28.4375 -166.59375 C 26.71875 -169.21875 24.609375 -171.476562 22.109375 -173.375 C 19.617188 -175.28125 16.585938 -176.234375 13.015625 -176.234375 L 5.703125 -176.234375 L 5.703125 -178.375 L 60.46875 -178.375 L 60.46875 -176.40625 L 51.1875 -176.40625 C 49.644531 -176.40625 48.128906 -176.226562 46.640625 -175.875 C 45.160156 -175.519531 44.421875 -174.15625 44.421875 -171.78125 C 44.421875 -170.46875 45.101562 -168 46.46875 -164.375 C 47.832031 -160.75 49.613281 -156.4375 51.8125 -151.4375 C 54.019531 -146.445312 56.398438 -141.15625 58.953125 -135.5625 C 61.503906 -129.976562 64.054688 -124.539062 66.609375 -119.25 C 69.171875 -113.957031 71.492188 -109.257812 73.578125 -105.15625 C 75.660156 -101.050781 77.238281 -97.925781 78.3125 -95.78125 C 79.5 -98.039062 81.398438 -101.578125 84.015625 -106.390625 C 86.628906 -111.210938 89.539062 -116.625 92.75 -122.625 C 95.96875 -128.632812 99.0625 -134.671875 102.03125 -140.734375 C 105 -146.796875 107.460938 -152.320312 109.421875 -157.3125 C 111.390625 -162.3125 112.375 -166.125 112.375 -168.75 C 112.375 -171.125 111.570312 -172.992188 109.96875 -174.359375 C 108.363281 -175.722656 105.773438 -176.40625 102.203125 -176.40625 L 92.9375 -176.40625 L 92.9375 -178.375 L 143.234375 -178.375 L 143.234375 -176.234375 L 135.921875 -176.234375 C 133.066406 -176.234375 130.332031 -175.28125 127.71875 -173.375 C 125.101562 -171.476562 122.8125 -169.21875 120.84375 -166.59375 C 118.882812 -163.976562 117.3125 -161.484375 116.125 -159.109375 C 115.53125 -157.921875 114.222656 -155.515625 112.203125 -151.890625 C 110.179688 -148.265625 107.769531 -143.984375 104.96875 -139.046875 C 102.175781 -134.109375 99.320312 -128.992188 96.40625 -123.703125 C 93.5 -118.410156 90.734375 -113.472656 88.109375 -108.890625 C 85.492188 -104.316406 83.382812 -100.601562 81.78125 -97.75 C 80.175781 -94.894531 79.375 -93.46875 79.375 -93.46875 C 79.375 -93.46875 80.175781 -91.832031 81.78125 -88.5625 C 83.382812 -85.289062 85.492188 -81.035156 88.109375 -75.796875 C 90.734375 -70.566406 93.5 -64.945312 96.40625 -58.9375 C 99.320312 -52.9375 102.175781 -47.140625 104.96875 -41.546875 C 107.769531 -35.960938 110.179688 -31.148438 112.203125 -27.109375 C 114.222656 -23.066406 115.53125 -20.453125 116.125 -19.265625 C 117.3125 -17.003906 118.765625 -14.535156 120.484375 -11.859375 C 122.210938 -9.179688 124.328125 -6.890625 126.828125 -4.984375 C 129.328125 -3.085938 132.359375 -2.140625 135.921875 -2.140625 L 143.234375 -2.140625 L 143.234375 0 L 88.46875 0 L 88.46875 -1.96875 L 97.75 -1.96875 C 99.414062 -1.96875 100.960938 -2.171875 102.390625 -2.578125 C 103.816406 -2.992188 104.53125 -4.332031 104.53125 -6.59375 C 104.53125 -7.90625 103.84375 -10.429688 102.46875 -14.171875 C 101.101562 -17.921875 99.257812 -22.378906 96.9375 -27.546875 C 94.625 -32.722656 92.128906 -38.164062 89.453125 -43.875 C 86.773438 -49.582031 84.15625 -55.113281 81.59375 -60.46875 C 79.039062 -65.820312 76.722656 -70.578125 74.640625 -74.734375 C 72.566406 -78.898438 71.050781 -81.9375 70.09375 -83.84375 C 69.144531 -82.050781 67.6875 -79.28125 65.71875 -75.53125 C 63.757812 -71.789062 61.503906 -67.507812 58.953125 -62.6875 C 56.398438 -57.875 53.785156 -52.851562 51.109375 -47.625 C 48.429688 -42.394531 45.960938 -37.3125 43.703125 -32.375 C 41.441406 -27.4375 39.625 -22.972656 38.25 -18.984375 C 36.882812 -15.003906 36.203125 -11.882812 36.203125 -9.625 C 36.203125 -7.375 37.003906 -5.535156 38.609375 -4.109375 C 40.222656 -2.679688 42.8125 -1.96875 46.375 -1.96875 L 55.65625 -1.96875 L 55.65625 0 L 5.34375 0 Z M 5.34375 -2.140625 "/></g></g><g clip-rule="nonzero" clip-path="url(#be8d1be61f)"><g transform="matrix(1,0,0,1,0,173)"><g clip-path="url(#06169ba29e)"><g clip-rule="nonzero" clip-path="url(#56e1d98056)"><path style=" stroke:none;fill-rule:nonzero;fill:#1e1e1e;fill-opacity:1;" d="M 0 0.671875 L 374.941406 0.671875 L 374.941406 46.226562 L 0 46.226562 Z M 0 0.671875 "/></g></g></g></g><path style="fill:none;stroke-width:2;stroke-linecap:butt;stroke-linejoin:miter;stroke:#e4e2dd;stroke-opacity:1;stroke-miterlimit:4;" d="M -0.00000271667 0.997962 L 400.000024 0.997962 " transform="matrix(0.75,0,0,0.75,37.500002,218.478091)"/><g style="fill:#1e1e1e;fill-opacity:1;"><g transform="translate(132.761715, 213.857885)"><path style="stroke:none" d="M 28.050781 -33.527344 C 29.277344 -32.378906 30.300781 -30.769531 31.113281 -28.695312 C 31.925781 -26.640625 32.460938 -24.226562 32.730469 -21.449219 C 33 -18.679688 32.921875 -15.636719 32.503906 -12.320312 C 32.082031 -9.011719 31.234375 -5.507812 29.964844 -1.820312 C 28.691406 1.894531 27.292969 5.082031 25.761719 7.746094 C 24.230469 10.414062 22.636719 12.59375 20.984375 14.285156 C 19.328125 15.984375 17.667969 17.238281 16.015625 18.054688 C 14.347656 18.875 12.777344 19.285156 11.304688 19.285156 C 10.484375 19.285156 9.71875 19.179688 9.003906 18.96875 C 7.230469 18.410156 5.738281 17.277344 4.527344 15.570312 C 3.335938 13.882812 2.492188 11.738281 2.003906 9.132812 C 1.492188 6.292969 1.40625 3.027344 1.75 -0.660156 C 2.09375 -4.335938 2.851562 -8.304688 4.019531 -12.574219 C 4.554688 -14.460938 5.195312 -16.363281 5.945312 -18.28125 C 6.699219 -20.207031 7.566406 -22.015625 8.550781 -23.699219 C 9.539062 -25.390625 10.617188 -26.851562 11.789062 -28.070312 C 12.980469 -29.316406 14.246094 -30.160156 15.59375 -30.609375 C 16.070312 -30.769531 16.539062 -30.875 16.992188 -30.929688 L 17.03125 -30.574219 L 16.742188 -30.777344 C 18.195312 -32.886719 19.78125 -34.28125 21.492188 -34.964844 C 23.859375 -35.90625 26.042969 -35.425781 28.050781 -33.527344 Z M 27.5625 -33.011719 C 25.773438 -34.703125 23.839844 -35.132812 21.753906 -34.304688 C 20.175781 -33.671875 18.699219 -32.363281 17.324219 -30.375 L 17.234375 -30.242188 L 17.074219 -30.222656 C 16.667969 -30.175781 16.25 -30.078125 15.816406 -29.933594 C 14.582031 -29.523438 13.410156 -28.738281 12.300781 -27.578125 C 11.171875 -26.398438 10.125 -24.984375 9.164062 -23.339844 C 8.199219 -21.6875 7.347656 -19.914062 6.609375 -18.023438 C 5.867188 -16.125 5.234375 -14.246094 4.707031 -12.386719 C 3.546875 -8.15625 2.800781 -4.226562 2.460938 -0.59375 C 2.121094 3.03125 2.203125 6.226562 2.703125 9 C 3.171875 11.503906 3.976562 13.554688 5.109375 15.160156 C 6.226562 16.738281 7.589844 17.777344 9.207031 18.285156 C 9.855469 18.476562 10.554688 18.574219 11.304688 18.574219 C 12.664062 18.574219 14.128906 18.1875 15.699219 17.414062 C 17.28125 16.636719 18.875 15.425781 20.476562 13.789062 C 22.085938 12.140625 23.644531 10.007812 25.144531 7.390625 C 26.652344 4.769531 28.035156 1.621094 29.289062 -2.050781 C 30.546875 -5.695312 31.382812 -9.148438 31.796875 -12.410156 C 32.210938 -15.671875 32.285156 -18.664062 32.023438 -21.378906 C 31.761719 -24.089844 31.238281 -26.441406 30.453125 -28.433594 C 29.675781 -30.410156 28.714844 -31.933594 27.5625 -33.007812 Z M 27.925781 -2.503906 C 29.105469 -5.972656 29.898438 -9.269531 30.296875 -12.394531 C 30.699219 -15.515625 30.789062 -18.375 30.5625 -20.964844 C 30.339844 -23.550781 29.871094 -25.789062 29.160156 -27.679688 C 28.460938 -29.550781 27.597656 -30.976562 26.574219 -31.949219 C 26.101562 -32.398438 25.488281 -32.773438 24.734375 -33.070312 C 24.027344 -33.351562 23.210938 -33.308594 22.285156 -32.9375 C 21.765625 -32.726562 21.234375 -32.394531 20.691406 -31.949219 C 20.144531 -31.5 19.597656 -30.929688 19.058594 -30.242188 L 18.777344 -30.460938 L 18.855469 -30.808594 C 19.792969 -30.59375 20.699219 -30.140625 21.578125 -29.453125 L 21.585938 -29.445312 C 21.808594 -29.257812 21.9375 -29.019531 21.976562 -28.722656 C 22.015625 -28.417969 21.9375 -28.152344 21.746094 -27.921875 C 21.558594 -27.699219 21.324219 -27.566406 21.042969 -27.53125 C 20.761719 -27.492188 20.492188 -27.5625 20.242188 -27.746094 L 20.234375 -27.746094 L 20.230469 -27.75 C 19.429688 -28.363281 18.632812 -28.695312 17.847656 -28.742188 L 17.867188 -29.097656 L 18.167969 -28.90625 C 16.96875 -27.035156 15.84375 -24.480469 14.792969 -21.246094 C 13.734375 -18.003906 12.835938 -14.007812 12.09375 -9.257812 C 11.347656 -4.503906 10.824219 1.105469 10.523438 7.566406 L 10.167969 7.550781 L 10.523438 7.550781 C 10.523438 7.855469 10.40625 8.113281 10.179688 8.324219 C 9.960938 8.523438 9.703125 8.625 9.40625 8.625 L 9.386719 8.625 L 9.363281 8.621094 C 9.074219 8.585938 8.832031 8.460938 8.632812 8.246094 C 8.417969 8.011719 8.332031 7.75 8.371094 7.460938 L 8.726562 7.511719 L 8.371094 7.496094 C 8.722656 -0.816406 9.535156 -8.082031 10.804688 -14.296875 C 12.074219 -20.527344 13.695312 -25.429688 15.660156 -29.003906 L 15.96875 -28.832031 L 16.097656 -28.5 C 14.890625 -28.039062 13.683594 -27.070312 12.472656 -25.589844 C 11.238281 -24.082031 10.070312 -22.164062 8.96875 -19.839844 C 7.867188 -17.507812 6.914062 -14.894531 6.109375 -12.007812 C 4.875 -7.550781 4.121094 -3.601562 3.84375 -0.160156 C 3.570312 3.273438 3.65625 6.1875 4.105469 8.582031 C 4.550781 10.960938 5.265625 12.84375 6.246094 14.230469 C 7.210938 15.59375 8.339844 16.476562 9.628906 16.882812 C 10.894531 17.289062 12.304688 17.214844 13.859375 16.660156 C 15.441406 16.09375 17.0625 15.019531 18.722656 13.4375 C 20.394531 11.839844 22.015625 9.722656 23.59375 7.082031 C 25.175781 4.433594 26.617188 1.238281 27.925781 -2.507812 Z M 28.597656 -2.273438 C 27.273438 1.519531 25.808594 4.757812 24.203125 7.445312 C 22.59375 10.144531 20.929688 12.3125 19.214844 13.953125 C 17.480469 15.605469 15.777344 16.730469 14.097656 17.328125 C 12.390625 17.9375 10.832031 18.015625 9.414062 17.5625 C 7.972656 17.109375 6.722656 16.132812 5.664062 14.640625 C 4.625 13.167969 3.871094 11.195312 3.40625 8.714844 C 2.945312 6.253906 2.855469 3.277344 3.136719 -0.21875 C 3.414062 -3.707031 4.179688 -7.699219 5.421875 -12.195312 C 6.238281 -15.125 7.207031 -17.773438 8.328125 -20.144531 C 9.453125 -22.523438 10.652344 -24.488281 11.921875 -26.039062 C 13.210938 -27.617188 14.519531 -28.660156 15.84375 -29.164062 L 16.75 -29.507812 L 16.28125 -28.660156 C 14.351562 -25.148438 12.757812 -20.316406 11.5 -14.15625 C 10.242188 -7.976562 9.433594 -0.75 9.082031 7.527344 L 9.078125 7.542969 L 9.078125 7.5625 C 9.066406 7.628906 9.09375 7.695312 9.15625 7.765625 C 9.238281 7.851562 9.335938 7.902344 9.453125 7.917969 L 9.40625 8.269531 L 9.40625 7.914062 C 9.519531 7.914062 9.613281 7.875 9.699219 7.800781 C 9.773438 7.730469 9.8125 7.648438 9.8125 7.550781 L 9.8125 7.53125 C 10.117188 1.046875 10.640625 -4.589844 11.390625 -9.367188 C 12.136719 -14.152344 13.046875 -18.1875 14.113281 -21.46875 C 15.1875 -24.757812 16.335938 -27.367188 17.566406 -29.289062 L 17.679688 -29.464844 L 17.886719 -29.453125 C 18.820312 -29.394531 19.746094 -29.019531 20.664062 -28.316406 L 20.445312 -28.035156 L 20.652344 -28.324219 C 20.753906 -28.25 20.851562 -28.222656 20.949219 -28.234375 C 21.046875 -28.246094 21.128906 -28.292969 21.199219 -28.375 C 21.257812 -28.449219 21.28125 -28.535156 21.269531 -28.632812 C 21.257812 -28.746094 21.210938 -28.832031 21.128906 -28.898438 L 21.355469 -29.171875 L 21.136719 -28.894531 C 20.34375 -29.515625 19.53125 -29.925781 18.699219 -30.113281 L 18.152344 -30.238281 L 18.5 -30.679688 C 19.070312 -31.410156 19.652344 -32.015625 20.238281 -32.5 C 20.835938 -32.992188 21.429688 -33.355469 22.023438 -33.597656 C 23.121094 -34.039062 24.113281 -34.082031 24.996094 -33.730469 C 25.835938 -33.398438 26.527344 -32.976562 27.066406 -32.464844 C 28.167969 -31.414062 29.085938 -29.902344 29.828125 -27.929688 C 30.558594 -25.980469 31.039062 -23.675781 31.269531 -21.027344 C 31.5 -18.386719 31.414062 -15.476562 31.003906 -12.300781 C 30.597656 -9.128906 29.792969 -5.789062 28.597656 -2.273438 Z M 28.597656 -2.273438 "/></g></g><g style="fill:#1e1e1e;fill-opacity:1;"><g transform="translate(167.622682, 213.857885)"><path style="stroke:none" d="M 15.332031 -8.488281 C 15.5625 -8.335938 15.710938 -8.117188 15.785156 -7.824219 C 15.859375 -7.519531 15.820312 -7.25 15.660156 -7.011719 L 15.363281 -7.207031 L 15.667969 -7.019531 C 15.460938 -6.691406 15.140625 -6.183594 14.695312 -5.496094 C 14.246094 -4.808594 13.710938 -4.046875 13.085938 -3.21875 C 12.460938 -2.390625 11.796875 -1.585938 11.09375 -0.804688 C 10.382812 -0.015625 9.675781 0.636719 8.976562 1.160156 C 8.230469 1.710938 7.527344 1.988281 6.867188 1.988281 C 6.609375 1.988281 6.378906 1.9375 6.175781 1.835938 L 6.335938 1.515625 L 6.214844 1.851562 C 5.453125 1.578125 4.976562 0.90625 4.789062 -0.167969 C 4.617188 -1.140625 4.675781 -2.53125 4.960938 -4.34375 L 5.3125 -4.285156 L 5.59375 -4.070312 C 5.261719 -3.636719 4.90625 -3.191406 4.523438 -2.730469 C 4.132812 -2.261719 3.714844 -1.832031 3.269531 -1.441406 C 2.519531 -0.804688 1.859375 -0.550781 1.289062 -0.675781 C 0.765625 -0.792969 0.402344 -0.953125 0.203125 -1.152344 L 0.457031 -1.402344 L 0.226562 -1.128906 C -0.296875 -1.566406 -0.625 -2.21875 -0.75 -3.078125 C -0.871094 -3.890625 -0.832031 -4.789062 -0.632812 -5.777344 C -0.4375 -6.765625 -0.0742188 -7.71875 0.449219 -8.636719 C 0.601562 -8.902344 0.828125 -9.070312 1.128906 -9.144531 C 1.421875 -9.21875 1.699219 -9.183594 1.960938 -9.035156 C 2.222656 -8.882812 2.390625 -8.664062 2.46875 -8.378906 C 2.542969 -8.097656 2.507812 -7.824219 2.355469 -7.5625 C 1.921875 -6.835938 1.628906 -6.117188 1.488281 -5.410156 C 1.34375 -4.703125 1.300781 -4.101562 1.359375 -3.609375 C 1.410156 -3.167969 1.492188 -2.902344 1.597656 -2.8125 L 1.367188 -2.542969 L 1.578125 -2.828125 C 1.550781 -2.847656 1.523438 -2.855469 1.492188 -2.851562 C 1.5 -2.851562 1.523438 -2.867188 1.5625 -2.890625 C 1.738281 -3.015625 1.863281 -3.09375 1.925781 -3.125 L 2.085938 -2.808594 L 1.847656 -3.070312 C 2.3125 -3.488281 2.753906 -3.964844 3.171875 -4.503906 C 3.59375 -5.054688 3.957031 -5.554688 4.257812 -6 L 4.261719 -6.007812 L 4.265625 -6.011719 C 4.679688 -6.585938 5.027344 -7.007812 5.304688 -7.289062 C 5.683594 -7.667969 6.125 -7.75 6.628906 -7.535156 L 6.488281 -7.207031 L 6.605469 -7.542969 C 7.117188 -7.359375 7.375 -6.96875 7.375 -6.375 C 7.375 -5.921875 7.308594 -5.320312 7.179688 -4.566406 C 6.929688 -3.125 6.816406 -2.082031 6.84375 -1.4375 C 6.867188 -0.820312 6.914062 -0.441406 6.992188 -0.300781 C 7.035156 -0.214844 7.070312 -0.15625 7.097656 -0.117188 L 7.101562 -0.109375 C 7.039062 -0.171875 6.964844 -0.203125 6.867188 -0.203125 L 6.9375 -0.203125 L 7.003906 -0.175781 C 6.984375 -0.183594 6.96875 -0.1875 6.960938 -0.1875 C 6.984375 -0.191406 7.015625 -0.199219 7.054688 -0.21875 C 7.171875 -0.265625 7.324219 -0.359375 7.511719 -0.492188 C 7.914062 -0.78125 8.453125 -1.253906 9.121094 -1.90625 C 10.46875 -3.210938 12.03125 -5.296875 13.808594 -8.15625 L 14.113281 -7.964844 L 13.804688 -8.144531 C 13.957031 -8.414062 14.191406 -8.582031 14.5 -8.636719 C 14.789062 -8.691406 15.058594 -8.648438 15.3125 -8.503906 L 15.324219 -8.496094 Z M 14.9375 -7.898438 L 15.136719 -8.195312 L 14.960938 -7.886719 C 14.859375 -7.941406 14.75 -7.960938 14.632812 -7.9375 C 14.539062 -7.921875 14.46875 -7.871094 14.421875 -7.789062 L 14.417969 -7.785156 L 14.414062 -7.777344 C 12.601562 -4.871094 11.003906 -2.742188 9.617188 -1.394531 C 8.921875 -0.71875 8.359375 -0.226562 7.925781 0.0859375 C 7.402344 0.460938 7.003906 0.59375 6.730469 0.480469 L 6.867188 0.152344 L 6.867188 0.507812 C 6.726562 0.507812 6.605469 0.429688 6.503906 0.277344 C 6.464844 0.222656 6.417969 0.140625 6.363281 0.0351562 C 6.234375 -0.203125 6.160156 -0.683594 6.132812 -1.410156 C 6.105469 -2.105469 6.21875 -3.195312 6.476562 -4.6875 C 6.601562 -5.402344 6.664062 -5.964844 6.664062 -6.375 C 6.664062 -6.636719 6.5625 -6.800781 6.367188 -6.871094 L 6.355469 -6.875 L 6.347656 -6.878906 C 6.140625 -6.96875 5.960938 -6.9375 5.808594 -6.785156 C 5.554688 -6.53125 5.234375 -6.136719 4.839844 -5.59375 L 4.550781 -5.804688 L 4.847656 -5.605469 C 4.539062 -5.144531 4.167969 -4.632812 3.734375 -4.070312 C 3.289062 -3.496094 2.820312 -2.988281 2.324219 -2.542969 L 2.289062 -2.511719 L 2.246094 -2.488281 C 2.210938 -2.472656 2.117188 -2.410156 1.964844 -2.304688 C 1.660156 -2.09375 1.390625 -2.078125 1.152344 -2.257812 L 1.144531 -2.265625 L 1.132812 -2.273438 C 0.886719 -2.484375 0.726562 -2.902344 0.652344 -3.523438 C 0.585938 -4.09375 0.628906 -4.769531 0.789062 -5.550781 C 0.949219 -6.339844 1.265625 -7.125 1.738281 -7.914062 C 1.792969 -8.007812 1.804688 -8.101562 1.78125 -8.195312 C 1.753906 -8.292969 1.699219 -8.363281 1.605469 -8.417969 C 1.511719 -8.46875 1.410156 -8.484375 1.300781 -8.457031 C 1.195312 -8.429688 1.117188 -8.371094 1.066406 -8.28125 C 0.582031 -7.429688 0.246094 -6.550781 0.0625 -5.640625 C -0.117188 -4.730469 -0.152344 -3.914062 -0.046875 -3.179688 C 0.0546875 -2.5 0.296875 -2 0.683594 -1.675781 L 0.695312 -1.667969 L 0.707031 -1.65625 C 0.808594 -1.550781 1.054688 -1.457031 1.441406 -1.371094 C 1.785156 -1.296875 2.234375 -1.496094 2.800781 -1.972656 C 3.214844 -2.339844 3.609375 -2.746094 3.976562 -3.1875 C 4.351562 -3.636719 4.703125 -4.078125 5.027344 -4.503906 L 5.664062 -4.230469 C 5.390625 -2.5 5.332031 -1.1875 5.492188 -0.289062 C 5.632812 0.511719 5.953125 1 6.457031 1.183594 L 6.496094 1.199219 C 6.597656 1.25 6.71875 1.277344 6.867188 1.277344 C 7.371094 1.277344 7.929688 1.046875 8.550781 0.585938 C 9.214844 0.09375 9.886719 -0.527344 10.566406 -1.28125 C 11.253906 -2.046875 11.90625 -2.832031 12.519531 -3.648438 C 13.132812 -4.460938 13.660156 -5.207031 14.097656 -5.882812 C 14.539062 -6.5625 14.859375 -7.066406 15.0625 -7.394531 L 15.0625 -7.398438 L 15.066406 -7.40625 C 15.109375 -7.46875 15.121094 -7.550781 15.09375 -7.652344 C 15.066406 -7.765625 15.015625 -7.847656 14.9375 -7.898438 Z M 14.9375 -7.898438 "/></g></g><g style="fill:#1e1e1e;fill-opacity:1;"><g transform="translate(181.202904, 213.857885)"><path style="stroke:none" d="M 32.289062 -22.609375 C 32.484375 -22.378906 32.558594 -22.109375 32.523438 -21.804688 C 32.484375 -21.5 32.332031 -21.253906 32.070312 -21.066406 L 32.066406 -21.066406 L 32.0625 -21.0625 C 31.613281 -20.761719 31.179688 -20.78125 30.769531 -21.121094 L 30.992188 -21.394531 L 30.863281 -21.0625 C 30.574219 -21.175781 29.859375 -21.257812 28.71875 -21.304688 C 27.546875 -21.355469 26.078125 -21.386719 24.3125 -21.398438 C 22.546875 -21.414062 20.601562 -21.40625 18.480469 -21.382812 L 11.9375 -21.285156 L 5.433594 -21.152344 L 5.425781 -21.507812 L 5.769531 -21.425781 C 4.988281 -18.140625 4.164062 -14.570312 3.304688 -10.714844 C 2.445312 -6.859375 1.601562 -2.949219 0.765625 1.023438 C -0.320312 6.226562 -1.160156 10.496094 -1.753906 13.832031 C -2.347656 17.164062 -2.734375 19.574219 -2.910156 21.058594 L -3.261719 21.015625 L -3.261719 20.660156 C -3.15625 20.660156 -3.050781 20.683594 -2.953125 20.734375 L -3.109375 21.054688 L -3.023438 20.707031 C -2.703125 20.789062 -2.484375 20.980469 -2.363281 21.28125 C -2.25 21.5625 -2.25 21.835938 -2.367188 22.105469 L -2.695312 21.964844 L -2.359375 22.082031 C -2.515625 22.527344 -2.691406 22.941406 -2.890625 23.324219 C -3.144531 23.816406 -3.511719 24.066406 -3.984375 24.066406 C -4.089844 24.066406 -4.207031 24.050781 -4.335938 24.015625 L -4.367188 24.007812 C -4.863281 23.828125 -5.140625 23.457031 -5.191406 22.886719 C -5.230469 22.445312 -5.199219 21.839844 -5.09375 21.082031 L -4.742188 21.128906 L -5.097656 21.097656 C -4.992188 20.023438 -4.765625 18.484375 -4.410156 16.476562 C -4.105469 14.605469 -3.714844 12.417969 -3.230469 9.910156 C -2.75 7.402344 -2.195312 4.65625 -1.5625 1.671875 C -0.726562 -2.375 0.132812 -6.398438 1.019531 -10.394531 C 1.902344 -14.390625 2.75 -18.113281 3.5625 -21.550781 L 3.90625 -21.472656 L 3.914062 -21.117188 L 0.464844 -21.039062 L -2.496094 -20.964844 C -4.1875 -20.914062 -5.667969 -20.875 -6.933594 -20.851562 C -8.203125 -20.824219 -9.101562 -20.8125 -9.636719 -20.8125 C -9.9375 -20.8125 -10.191406 -20.917969 -10.398438 -21.125 C -10.609375 -21.332031 -10.710938 -21.589844 -10.710938 -21.886719 C -10.710938 -22.1875 -10.609375 -22.445312 -10.398438 -22.652344 C -10.191406 -22.859375 -9.9375 -22.964844 -9.636719 -22.964844 C -9.109375 -22.964844 -8.21875 -22.984375 -6.972656 -23.023438 L -2.550781 -23.15625 L 0.980469 -23.230469 L 4.277344 -23.304688 L 4.285156 -22.949219 L 3.941406 -23.03125 C 4.320312 -24.652344 4.695312 -26.179688 5.0625 -27.609375 C 5.429688 -29.042969 5.777344 -30.351562 6.105469 -31.542969 L 6.449219 -31.449219 L 6.105469 -31.535156 C 6.179688 -31.835938 6.347656 -32.0625 6.613281 -32.210938 C 6.878906 -32.363281 7.144531 -32.398438 7.417969 -32.320312 L 7.320312 -31.980469 L 7.40625 -32.324219 C 7.707031 -32.25 7.933594 -32.078125 8.085938 -31.8125 C 8.234375 -31.554688 8.269531 -31.277344 8.199219 -30.984375 C 7.589844 -28.730469 6.894531 -26.035156 6.109375 -22.902344 L 5.765625 -22.988281 L 5.761719 -23.34375 L 15.890625 -23.515625 C 18.699219 -23.554688 21.050781 -23.570312 22.949219 -23.570312 C 24.851562 -23.570312 26.394531 -23.546875 27.574219 -23.496094 C 28.757812 -23.445312 29.65625 -23.386719 30.269531 -23.324219 C 30.910156 -23.257812 31.371094 -23.167969 31.65625 -23.054688 C 31.984375 -22.921875 32.207031 -22.757812 32.320312 -22.566406 L 32.015625 -22.382812 Z M 31.742188 -22.152344 L 31.710938 -22.199219 C 31.675781 -22.257812 31.570312 -22.320312 31.390625 -22.394531 C 31.167969 -22.480469 30.769531 -22.554688 30.199219 -22.617188 C 29.597656 -22.679688 28.714844 -22.734375 27.542969 -22.785156 C 26.375 -22.835938 24.84375 -22.859375 22.949219 -22.859375 C 21.054688 -22.859375 18.707031 -22.839844 15.902344 -22.804688 L 5.308594 -22.625 L 5.421875 -23.074219 C 6.207031 -26.214844 6.902344 -28.90625 7.507812 -31.15625 C 7.535156 -31.265625 7.523438 -31.367188 7.46875 -31.460938 C 7.417969 -31.550781 7.339844 -31.609375 7.234375 -31.632812 L 7.230469 -31.636719 L 7.222656 -31.636719 C 7.144531 -31.660156 7.058594 -31.644531 6.96875 -31.59375 C 6.878906 -31.542969 6.820312 -31.464844 6.792969 -31.363281 L 6.792969 -31.351562 C 6.464844 -30.167969 6.117188 -28.859375 5.75 -27.433594 C 5.382812 -26.007812 5.011719 -24.484375 4.632812 -22.871094 L 4.570312 -22.601562 L 0.992188 -22.519531 L -2.53125 -22.445312 L -6.949219 -22.3125 C -8.207031 -22.273438 -9.101562 -22.253906 -9.636719 -22.253906 C -9.738281 -22.253906 -9.828125 -22.21875 -9.894531 -22.148438 C -9.964844 -22.078125 -10 -21.992188 -10 -21.886719 C -10 -21.785156 -9.964844 -21.699219 -9.894531 -21.628906 C -9.828125 -21.558594 -9.738281 -21.523438 -9.636719 -21.523438 C -9.105469 -21.523438 -8.210938 -21.535156 -6.949219 -21.5625 C -5.6875 -21.585938 -4.207031 -21.625 -2.511719 -21.675781 L 0.449219 -21.75 L 4.359375 -21.835938 L 4.253906 -21.390625 C 3.445312 -17.953125 2.597656 -14.234375 1.714844 -10.242188 C 0.828125 -6.246094 -0.03125 -2.226562 -0.867188 1.820312 C -1.496094 4.800781 -2.054688 7.542969 -2.535156 10.042969 C -3.011719 12.542969 -3.40625 14.730469 -3.707031 16.601562 C -4.0625 18.589844 -4.289062 20.109375 -4.386719 21.164062 L -4.386719 21.171875 L -4.390625 21.179688 C -4.488281 21.886719 -4.519531 22.433594 -4.484375 22.824219 C -4.457031 23.089844 -4.339844 23.261719 -4.128906 23.335938 L -4.25 23.671875 L -4.164062 23.328125 C -4.089844 23.34375 -4.03125 23.355469 -3.984375 23.355469 C -3.796875 23.355469 -3.644531 23.234375 -3.519531 22.996094 C -3.339844 22.644531 -3.175781 22.261719 -3.027344 21.847656 L -3.019531 21.824219 C -2.984375 21.738281 -2.984375 21.644531 -3.023438 21.546875 C -3.054688 21.46875 -3.113281 21.421875 -3.195312 21.398438 L -3.234375 21.390625 L -3.269531 21.371094 L -3.261719 21.371094 L -3.664062 21.371094 L -3.617188 20.972656 C -3.4375 19.476562 -3.050781 17.054688 -2.457031 13.707031 C -1.859375 10.367188 -1.019531 6.089844 0.0703125 0.875 C 0.902344 -3.097656 1.75 -7.011719 2.613281 -10.871094 C 3.472656 -14.726562 4.292969 -18.300781 5.078125 -21.589844 L 5.140625 -21.859375 L 11.925781 -21.996094 L 18.46875 -22.09375 C 20.597656 -22.117188 22.546875 -22.125 24.320312 -22.113281 C 26.09375 -22.097656 27.570312 -22.066406 28.75 -22.015625 C 29.964844 -21.964844 30.753906 -21.867188 31.121094 -21.726562 L 31.175781 -21.707031 L 31.21875 -21.671875 C 31.359375 -21.554688 31.511719 -21.546875 31.667969 -21.652344 L 31.867188 -21.355469 L 31.660156 -21.648438 C 31.75 -21.710938 31.804688 -21.796875 31.816406 -21.894531 C 31.828125 -21.996094 31.804688 -22.082031 31.742188 -22.152344 Z M 31.742188 -22.152344 "/></g></g><g style="fill:#1e1e1e;fill-opacity:1;"><g transform="translate(186.248066, 213.857885)"><path style="stroke:none" d="M 11.445312 -35.746094 C 11.832031 -35.179688 11.855469 -34.117188 11.519531 -32.550781 C 11.199219 -31.058594 10.539062 -29.21875 9.542969 -27.03125 C 8.550781 -24.855469 7.226562 -22.445312 5.574219 -19.804688 L 5.554688 -19.769531 L 5.449219 -19.664062 L 5.195312 -19.914062 L 5.542969 -19.832031 C 4.886719 -17.152344 4.234375 -14.421875 3.589844 -11.640625 C 2.945312 -8.859375 2.332031 -6.132812 1.75 -3.453125 C 1.167969 -0.773438 0.640625 1.746094 0.160156 4.109375 C -0.320312 6.472656 -0.730469 8.578125 -1.074219 10.421875 C -1.414062 12.261719 -1.660156 13.734375 -1.808594 14.84375 L -2.164062 14.792969 L -2.164062 14.4375 L -2.023438 14.4375 L -1.960938 14.460938 C -1.671875 14.570312 -1.460938 14.753906 -1.332031 15.015625 C -1.199219 15.285156 -1.1875 15.570312 -1.296875 15.867188 C -1.480469 16.359375 -1.667969 16.804688 -1.859375 17.207031 C -2.117188 17.734375 -2.480469 17.996094 -2.957031 17.996094 C -3.0625 17.996094 -3.179688 17.980469 -3.3125 17.945312 L -3.324219 17.945312 L -3.335938 17.9375 C -3.667969 17.828125 -3.902344 17.605469 -4.046875 17.265625 C -4.171875 16.96875 -4.191406 16.429688 -4.109375 15.648438 C -4.03125 14.921875 -3.867188 13.808594 -3.613281 12.308594 C -3.15625 9.570312 -2.472656 6.003906 -1.5625 1.597656 C -0.902344 -1.492188 -0.214844 -4.636719 0.507812 -7.835938 C 1.226562 -11.035156 1.941406 -14.125 2.652344 -17.097656 C 3.359375 -20.070312 4.042969 -22.773438 4.703125 -25.207031 C 4.828125 -25.6875 5.019531 -26.359375 5.273438 -27.222656 C 5.527344 -28.085938 5.820312 -29.015625 6.148438 -30.003906 C 6.480469 -31.003906 6.851562 -31.960938 7.261719 -32.882812 C 7.675781 -33.816406 8.105469 -34.589844 8.550781 -35.203125 C 9.035156 -35.875 9.542969 -36.257812 10.066406 -36.351562 C 10.648438 -36.453125 11.109375 -36.25 11.449219 -35.742188 Z M 10.855469 -35.347656 C 10.691406 -35.597656 10.46875 -35.699219 10.191406 -35.648438 C 9.855469 -35.589844 9.5 -35.304688 9.128906 -34.785156 C 8.710938 -34.210938 8.304688 -33.480469 7.910156 -32.59375 C 7.511719 -31.695312 7.148438 -30.753906 6.824219 -29.78125 C 6.496094 -28.796875 6.207031 -27.878906 5.957031 -27.023438 C 5.703125 -26.167969 5.515625 -25.5 5.386719 -25.019531 C 4.730469 -22.59375 4.050781 -19.898438 3.34375 -16.929688 C 2.636719 -13.960938 1.921875 -10.878906 1.199219 -7.679688 C 0.480469 -4.480469 -0.207031 -1.339844 -0.867188 1.742188 C -1.773438 6.136719 -2.457031 9.699219 -2.910156 12.425781 C -3.164062 13.910156 -3.328125 15.011719 -3.402344 15.722656 C -3.472656 16.382812 -3.46875 16.804688 -3.390625 16.988281 C -3.332031 17.132812 -3.238281 17.222656 -3.113281 17.265625 L -3.222656 17.601562 L -3.136719 17.257812 C -3.066406 17.273438 -3.003906 17.285156 -2.957031 17.285156 C -2.777344 17.285156 -2.625 17.15625 -2.5 16.898438 C -2.316406 16.515625 -2.136719 16.089844 -1.964844 15.617188 C -1.925781 15.511719 -1.925781 15.417969 -1.96875 15.332031 C -2.015625 15.238281 -2.097656 15.171875 -2.210938 15.128906 L -2.085938 14.792969 L -2.085938 15.148438 L -2.570312 15.148438 L -2.515625 14.746094 C -2.363281 13.628906 -2.113281 12.144531 -1.773438 10.292969 C -1.429688 8.441406 -1.019531 6.335938 -0.539062 3.96875 C -0.0585938 1.601562 0.472656 -0.921875 1.054688 -3.601562 C 1.636719 -6.285156 2.25 -9.019531 2.898438 -11.800781 C 3.542969 -14.585938 4.195312 -17.320312 4.851562 -20 L 4.875 -20.097656 L 5.019531 -20.242188 L 5.273438 -19.992188 L 4.972656 -20.179688 C 6.605469 -22.796875 7.914062 -25.179688 8.894531 -27.328125 C 9.871094 -29.46875 10.511719 -31.257812 10.824219 -32.699219 C 11.117188 -34.066406 11.128906 -34.949219 10.859375 -35.34375 Z M 6.210938 -25.167969 C 7.414062 -27.425781 8.261719 -29.300781 8.746094 -30.800781 C 9.234375 -32.292969 9.511719 -33.371094 9.585938 -34.027344 L 9.9375 -33.988281 L 10.230469 -33.785156 C 9.890625 -33.300781 9.421875 -32.367188 8.824219 -30.984375 C 8.222656 -29.597656 7.570312 -27.570312 6.867188 -24.910156 L 6.523438 -25 Z M 6.839844 -24.832031 L 6.179688 -25.089844 C 6.894531 -27.789062 7.558594 -29.847656 8.171875 -31.265625 C 8.789062 -32.691406 9.28125 -33.667969 9.648438 -34.195312 L 10.292969 -33.949219 C 10.214844 -33.242188 9.925781 -32.121094 9.421875 -30.578125 C 8.925781 -29.042969 8.0625 -27.125 6.839844 -24.832031 Z M 6.839844 -24.832031 "/></g></g><g style="fill:#1e1e1e;fill-opacity:1;"><g transform="translate(192.013977, 213.857885)"><path style="stroke:none" d="M 16.035156 -8.75 C 16.308594 -8.628906 16.496094 -8.425781 16.59375 -8.136719 C 16.683594 -7.859375 16.675781 -7.59375 16.5625 -7.332031 L 16.554688 -7.316406 C 16.070312 -6.324219 15.542969 -5.328125 14.96875 -4.335938 C 14.394531 -3.335938 13.792969 -2.421875 13.164062 -1.585938 C 12.523438 -0.738281 11.859375 -0.0585938 11.175781 0.457031 C 10.457031 0.996094 9.726562 1.265625 8.992188 1.265625 C 8.84375 1.265625 8.6875 1.25 8.515625 1.222656 L 8.503906 1.222656 C 6.636719 0.859375 5.492188 -1.523438 5.070312 -5.921875 L 5.425781 -5.957031 L 5.710938 -5.746094 C 5.277344 -5.160156 4.777344 -4.503906 4.207031 -3.78125 C 3.632812 -3.054688 3.027344 -2.335938 2.390625 -1.621094 L 2.375 -1.605469 C 2.273438 -1.503906 2.105469 -1.34375 1.875 -1.125 C 1.617188 -0.882812 1.316406 -0.6875 0.972656 -0.542969 C 0.566406 -0.375 0.164062 -0.390625 -0.234375 -0.59375 L -0.0742188 -0.910156 L -0.199219 -0.578125 C -0.964844 -0.863281 -1.332031 -1.636719 -1.304688 -2.890625 L -0.949219 -2.882812 L -1.304688 -2.882812 C -1.304688 -3.546875 -1.179688 -4.359375 -0.933594 -5.324219 C -0.6875 -6.28125 -0.339844 -7.242188 0.113281 -8.210938 C 0.570312 -9.1875 1.101562 -10.050781 1.714844 -10.808594 C 2.351562 -11.59375 3.070312 -12.125 3.867188 -12.398438 L 3.984375 -12.0625 L 3.855469 -12.394531 C 4.371094 -12.597656 4.992188 -12.632812 5.714844 -12.507812 C 6.457031 -12.378906 7.207031 -11.867188 7.972656 -10.964844 C 8.160156 -10.738281 8.246094 -10.480469 8.226562 -10.183594 C 8.207031 -9.878906 8.082031 -9.628906 7.851562 -9.4375 C 7.628906 -9.25 7.367188 -9.167969 7.070312 -9.1875 C 6.765625 -9.203125 6.519531 -9.328125 6.328125 -9.558594 C 5.800781 -10.171875 5.378906 -10.464844 5.058594 -10.4375 C 4.683594 -10.40625 4.371094 -10.296875 4.121094 -10.109375 C 3.601562 -9.730469 3.125 -9.183594 2.695312 -8.464844 C 2.25 -7.726562 1.882812 -6.949219 1.585938 -6.136719 C 1.289062 -5.324219 1.082031 -4.566406 0.957031 -3.863281 C 0.835938 -3.183594 0.800781 -2.695312 0.84375 -2.40625 L 0.492188 -2.351562 L 0.296875 -2.648438 C 0.359375 -2.691406 0.429688 -2.746094 0.507812 -2.8125 C 0.578125 -2.875 0.660156 -2.957031 0.746094 -3.066406 L 0.753906 -3.074219 L 0.761719 -3.085938 C 1.511719 -3.910156 2.203125 -4.734375 2.828125 -5.546875 C 3.457031 -6.367188 4 -7.089844 4.453125 -7.71875 C 4.578125 -7.894531 4.695312 -8.0625 4.808594 -8.226562 C 4.929688 -8.398438 5.039062 -8.546875 5.148438 -8.683594 C 5.449219 -9.058594 5.84375 -9.175781 6.324219 -9.027344 L 6.222656 -8.6875 L 6.300781 -9.035156 C 6.800781 -8.917969 7.070312 -8.597656 7.105469 -8.066406 L 7.109375 -8.0625 L 7.109375 -8.058594 C 7.183594 -6.429688 7.3125 -5.125 7.5 -4.144531 C 7.683594 -3.175781 7.882812 -2.457031 8.097656 -1.988281 C 8.304688 -1.542969 8.492188 -1.246094 8.65625 -1.101562 C 8.738281 -1.027344 8.808594 -0.976562 8.867188 -0.941406 C 8.882812 -0.933594 8.898438 -0.925781 8.910156 -0.921875 C 8.902344 -0.921875 8.890625 -0.925781 8.875 -0.925781 L 8.914062 -0.925781 L 8.949219 -0.917969 C 9.09375 -0.886719 9.320312 -0.96875 9.625 -1.164062 C 9.988281 -1.394531 10.425781 -1.773438 10.9375 -2.296875 C 11.972656 -3.355469 13.1875 -5.335938 14.589844 -8.234375 C 14.734375 -8.527344 14.949219 -8.722656 15.230469 -8.816406 C 15.523438 -8.914062 15.800781 -8.882812 16.070312 -8.730469 L 15.894531 -8.421875 Z M 15.753906 -8.09375 L 15.734375 -8.101562 L 15.71875 -8.113281 C 15.632812 -8.160156 15.546875 -8.171875 15.457031 -8.140625 C 15.359375 -8.109375 15.285156 -8.035156 15.230469 -7.925781 C 13.796875 -4.957031 12.535156 -2.914062 11.445312 -1.800781 C 10.292969 -0.621094 9.410156 -0.09375 8.804688 -0.222656 L 8.875 -0.570312 L 8.875 -0.214844 C 8.6875 -0.214844 8.457031 -0.332031 8.1875 -0.566406 C 7.945312 -0.777344 7.703125 -1.152344 7.453125 -1.691406 C 7.214844 -2.210938 6.996094 -2.984375 6.800781 -4.011719 C 6.609375 -5.027344 6.472656 -6.363281 6.398438 -8.027344 L 6.753906 -8.042969 L 6.398438 -8.015625 C 6.386719 -8.195312 6.300781 -8.304688 6.140625 -8.339844 L 6.117188 -8.347656 C 5.941406 -8.402344 5.804688 -8.363281 5.703125 -8.238281 C 5.605469 -8.117188 5.503906 -7.976562 5.394531 -7.820312 C 5.28125 -7.65625 5.160156 -7.484375 5.03125 -7.304688 C 4.574219 -6.667969 4.027344 -5.9375 3.390625 -5.113281 C 2.753906 -4.285156 2.050781 -3.449219 1.289062 -2.605469 L 1.023438 -2.84375 L 1.300781 -2.621094 C 1.1875 -2.480469 1.078125 -2.363281 0.972656 -2.273438 C 0.871094 -2.1875 0.777344 -2.113281 0.691406 -2.054688 L 0.226562 -1.746094 L 0.140625 -2.296875 C 0.0859375 -2.664062 0.125 -3.230469 0.257812 -3.988281 C 0.386719 -4.730469 0.605469 -5.527344 0.917969 -6.378906 C 1.230469 -7.238281 1.617188 -8.054688 2.085938 -8.832031 C 2.566406 -9.632812 3.101562 -10.246094 3.695312 -10.679688 C 4.050781 -10.945312 4.484375 -11.101562 4.996094 -11.148438 C 5.558594 -11.195312 6.1875 -10.816406 6.875 -10.015625 C 6.933594 -9.941406 7.015625 -9.902344 7.117188 -9.894531 C 7.222656 -9.890625 7.316406 -9.917969 7.398438 -9.984375 C 7.46875 -10.046875 7.511719 -10.125 7.515625 -10.226562 C 7.523438 -10.335938 7.496094 -10.429688 7.429688 -10.503906 C 6.777344 -11.273438 6.164062 -11.707031 5.589844 -11.808594 C 5 -11.910156 4.507812 -11.886719 4.113281 -11.730469 L 4.105469 -11.730469 L 4.097656 -11.726562 C 3.429688 -11.496094 2.820312 -11.039062 2.269531 -10.359375 C 1.691406 -9.648438 1.1875 -8.832031 0.757812 -7.910156 C 0.324219 -6.980469 -0.0078125 -6.0625 -0.242188 -5.148438 C -0.476562 -4.238281 -0.59375 -3.484375 -0.59375 -2.882812 L -0.59375 -2.875 C -0.613281 -1.957031 -0.398438 -1.410156 0.0507812 -1.242188 L 0.0664062 -1.238281 L 0.0820312 -1.230469 C 0.289062 -1.125 0.496094 -1.117188 0.699219 -1.199219 C 0.960938 -1.3125 1.191406 -1.457031 1.386719 -1.644531 C 1.613281 -1.855469 1.773438 -2.011719 1.871094 -2.109375 L 2.125 -1.859375 L 1.859375 -2.09375 C 2.488281 -2.796875 3.082031 -3.507812 3.648438 -4.222656 C 4.214844 -4.941406 4.710938 -5.589844 5.140625 -6.167969 L 5.691406 -6.914062 L 5.777344 -5.988281 C 6.167969 -1.941406 7.121094 0.226562 8.640625 0.523438 L 8.574219 0.871094 L 8.632812 0.523438 C 8.765625 0.542969 8.882812 0.554688 8.992188 0.554688 C 9.570312 0.554688 10.15625 0.332031 10.75 -0.113281 C 11.378906 -0.585938 11.996094 -1.222656 12.59375 -2.015625 C 13.207031 -2.828125 13.792969 -3.71875 14.355469 -4.691406 C 14.917969 -5.671875 15.441406 -6.648438 15.917969 -7.628906 L 16.234375 -7.472656 L 15.910156 -7.613281 C 15.949219 -7.707031 15.953125 -7.804688 15.917969 -7.910156 C 15.886719 -8 15.832031 -8.0625 15.753906 -8.09375 Z M 15.753906 -8.09375 "/></g></g><g style="fill:#1e1e1e;fill-opacity:1;"><g transform="translate(206.125273, 213.857885)"><path style="stroke:none" d="M 23.503906 -8.785156 C 23.695312 -8.597656 23.800781 -8.355469 23.816406 -8.0625 C 23.835938 -7.753906 23.734375 -7.488281 23.503906 -7.257812 C 22.28125 -6.011719 21.035156 -5.136719 19.761719 -4.636719 C 18.460938 -4.128906 17.25 -4.035156 16.136719 -4.363281 L 16.128906 -4.363281 L 16.125 -4.367188 C 15.636719 -4.527344 15.125 -4.796875 14.589844 -5.171875 C 14.035156 -5.558594 13.554688 -6.160156 13.148438 -6.972656 L 13.46875 -7.132812 L 13.808594 -7.039062 C 13.429688 -5.613281 12.996094 -4.25 12.511719 -2.949219 C 11.96875 -1.535156 11.484375 -0.484375 11.054688 0.207031 C 10.613281 0.921875 10.203125 1.402344 9.832031 1.644531 C 9.441406 1.898438 9.085938 2.023438 8.761719 2.023438 C 8.1875 2.023438 7.738281 1.804688 7.414062 1.367188 C 7.136719 0.996094 6.929688 0.585938 6.792969 0.144531 C 6.664062 -0.269531 6.570312 -0.597656 6.519531 -0.832031 L 6.515625 -0.839844 L 6.515625 -0.847656 C 6.4375 -1.289062 6.375 -1.804688 6.320312 -2.398438 L 6.675781 -2.429688 L 6.976562 -2.234375 C 6.109375 -0.886719 5.414062 0.128906 4.890625 0.804688 C 4.359375 1.492188 3.886719 2.03125 3.46875 2.421875 L 3.222656 2.164062 L 3.476562 2.414062 C 3.113281 2.777344 2.769531 3.023438 2.449219 3.15625 C 2.128906 3.285156 1.828125 3.351562 1.554688 3.351562 C 1.339844 3.351562 1.136719 3.320312 0.949219 3.257812 C 0.746094 3.191406 0.585938 3.097656 0.46875 2.984375 L 0.722656 2.730469 L 0.527344 3.03125 C -0.199219 2.5625 -0.632812 1.601562 -0.769531 0.148438 C -0.902344 -1.226562 -0.785156 -2.902344 -0.425781 -4.882812 C -0.0664062 -6.847656 0.519531 -8.976562 1.335938 -11.273438 L 1.335938 -11.28125 L 1.34375 -11.292969 C 1.453125 -11.550781 1.632812 -11.742188 1.890625 -11.871094 C 2.160156 -12.003906 2.441406 -12.015625 2.742188 -11.902344 L 2.617188 -11.570312 L 2.714844 -11.914062 C 2.996094 -11.832031 3.203125 -11.648438 3.339844 -11.359375 C 3.472656 -11.074219 3.480469 -10.792969 3.363281 -10.519531 L 3.035156 -10.660156 L 3.371094 -10.539062 C 2.46875 -8.03125 1.882812 -5.910156 1.621094 -4.175781 C 1.363281 -2.449219 1.28125 -1.121094 1.378906 -0.1875 C 1.425781 0.269531 1.488281 0.628906 1.566406 0.886719 C 1.621094 1.082031 1.671875 1.191406 1.714844 1.222656 L 1.722656 1.226562 L 1.730469 1.234375 C 1.671875 1.1875 1.613281 1.171875 1.554688 1.183594 C 1.566406 1.179688 1.578125 1.171875 1.59375 1.164062 C 1.691406 1.105469 1.824219 1 1.996094 0.839844 C 2.285156 0.574219 2.609375 0.214844 2.964844 -0.238281 C 3.324219 -0.699219 3.773438 -1.332031 4.3125 -2.132812 C 4.855469 -2.941406 5.542969 -4 6.375 -5.3125 L 6.675781 -5.121094 L 6.371094 -5.300781 C 6.5 -5.523438 6.671875 -5.675781 6.882812 -5.757812 C 7.089844 -5.835938 7.316406 -5.839844 7.570312 -5.765625 C 8.097656 -5.617188 8.359375 -5.261719 8.359375 -4.703125 C 8.359375 -4.257812 8.386719 -3.710938 8.433594 -3.0625 C 8.484375 -2.414062 8.558594 -1.808594 8.65625 -1.238281 L 8.308594 -1.175781 L 8.652344 -1.257812 C 8.75 -0.84375 8.835938 -0.539062 8.90625 -0.351562 C 8.972656 -0.175781 9.023438 -0.0625 9.058594 -0.0078125 L 8.761719 0.191406 L 8.578125 -0.117188 C 8.773438 -0.234375 9.039062 -0.617188 9.375 -1.261719 C 9.738281 -1.960938 10.113281 -2.808594 10.5 -3.808594 C 10.886719 -4.808594 11.238281 -5.859375 11.550781 -6.964844 C 11.863281 -8.058594 12.078125 -9.078125 12.203125 -10.023438 L 12.207031 -10.03125 L 12.207031 -10.042969 C 12.261719 -10.328125 12.378906 -10.546875 12.566406 -10.703125 C 12.75 -10.859375 12.988281 -10.941406 13.277344 -10.941406 L 13.277344 -10.582031 L 13.253906 -10.9375 C 13.546875 -10.957031 13.789062 -10.890625 13.980469 -10.738281 C 14.171875 -10.589844 14.292969 -10.371094 14.347656 -10.082031 C 14.75 -8.023438 15.550781 -6.8125 16.757812 -6.449219 C 17.429688 -6.246094 18.222656 -6.34375 19.128906 -6.738281 C 20.074219 -7.148438 21.023438 -7.832031 21.976562 -8.785156 L 22.230469 -8.535156 L 21.957031 -8.761719 C 22.152344 -9 22.410156 -9.117188 22.722656 -9.117188 C 23.023438 -9.117188 23.285156 -9.007812 23.503906 -8.785156 Z M 23.003906 -8.285156 C 22.921875 -8.367188 22.828125 -8.40625 22.722656 -8.40625 C 22.632812 -8.40625 22.558594 -8.375 22.503906 -8.308594 L 22.480469 -8.285156 C 21.464844 -7.265625 20.441406 -6.53125 19.414062 -6.085938 C 18.347656 -5.621094 17.394531 -5.515625 16.550781 -5.765625 C 15.074219 -6.214844 14.105469 -7.605469 13.648438 -9.949219 C 13.625 -10.0625 13.589844 -10.140625 13.539062 -10.179688 C 13.492188 -10.21875 13.410156 -10.234375 13.300781 -10.230469 L 13.289062 -10.226562 L 13.277344 -10.226562 C 13.160156 -10.226562 13.078125 -10.207031 13.023438 -10.160156 C 12.96875 -10.113281 12.929688 -10.03125 12.90625 -9.910156 L 12.554688 -9.976562 L 12.910156 -9.929688 C 12.78125 -8.953125 12.554688 -7.898438 12.234375 -6.769531 C 11.914062 -5.644531 11.558594 -4.574219 11.160156 -3.550781 C 10.765625 -2.527344 10.378906 -1.65625 10.007812 -0.9375 C 9.609375 -0.167969 9.257812 0.308594 8.945312 0.496094 L 8.65625 0.667969 L 8.46875 0.386719 C 8.402344 0.289062 8.324219 0.125 8.242188 -0.101562 C 8.160156 -0.320312 8.066406 -0.648438 7.960938 -1.09375 L 7.960938 -1.105469 L 7.957031 -1.113281 C 7.855469 -1.707031 7.777344 -2.339844 7.726562 -3.007812 C 7.675781 -3.675781 7.648438 -4.238281 7.648438 -4.703125 C 7.648438 -4.90625 7.558594 -5.03125 7.375 -5.082031 C 7.273438 -5.113281 7.195312 -5.113281 7.136719 -5.09375 C 7.082031 -5.070312 7.03125 -5.019531 6.984375 -4.941406 L 6.980469 -4.9375 L 6.976562 -4.929688 C 6.140625 -3.613281 5.449219 -2.546875 4.90625 -1.738281 C 4.355469 -0.917969 3.894531 -0.273438 3.523438 0.199219 C 3.144531 0.683594 2.796875 1.070312 2.480469 1.359375 C 2.269531 1.554688 2.09375 1.695312 1.953125 1.777344 C 1.695312 1.925781 1.480469 1.933594 1.304688 1.800781 L 1.515625 1.515625 L 1.320312 1.8125 C 1 1.601562 0.785156 0.957031 0.671875 -0.113281 C 0.566406 -1.105469 0.648438 -2.496094 0.917969 -4.28125 C 1.1875 -6.0625 1.78125 -8.230469 2.699219 -10.78125 L 2.703125 -10.789062 L 2.707031 -10.800781 C 2.742188 -10.878906 2.738281 -10.964844 2.695312 -11.058594 C 2.652344 -11.152344 2.59375 -11.207031 2.519531 -11.226562 L 2.507812 -11.230469 L 2.492188 -11.238281 C 2.386719 -11.277344 2.292969 -11.273438 2.207031 -11.234375 C 2.109375 -11.183594 2.039062 -11.109375 1.996094 -11.011719 L 1.667969 -11.152344 L 2.003906 -11.035156 C 1.203125 -8.777344 0.625 -6.683594 0.273438 -4.753906 C -0.0742188 -2.839844 -0.1875 -1.226562 -0.0625 0.0820312 C 0.0507812 1.304688 0.378906 2.089844 0.914062 2.433594 L 0.945312 2.453125 L 0.972656 2.480469 C 1.007812 2.515625 1.074219 2.550781 1.175781 2.582031 C 1.289062 2.621094 1.417969 2.640625 1.554688 2.640625 C 1.734375 2.640625 1.945312 2.59375 2.179688 2.496094 C 2.414062 2.402344 2.679688 2.207031 2.972656 1.910156 L 2.980469 1.902344 C 3.371094 1.535156 3.820312 1.027344 4.328125 0.371094 C 4.839844 -0.292969 5.523438 -1.289062 6.378906 -2.621094 L 6.941406 -3.496094 L 7.03125 -2.457031 C 7.082031 -1.886719 7.140625 -1.390625 7.214844 -0.972656 L 6.867188 -0.910156 L 7.214844 -0.988281 C 7.261719 -0.769531 7.347656 -0.464844 7.472656 -0.0664062 C 7.585938 0.296875 7.757812 0.636719 7.988281 0.945312 C 8.167969 1.191406 8.425781 1.3125 8.761719 1.3125 C 8.945312 1.3125 9.171875 1.226562 9.441406 1.050781 C 9.726562 0.863281 10.0625 0.457031 10.453125 -0.167969 C 10.859375 -0.820312 11.320312 -1.828125 11.84375 -3.195312 C 12.320312 -4.476562 12.746094 -5.820312 13.125 -7.222656 L 13.367188 -8.128906 L 13.785156 -7.289062 C 14.136719 -6.585938 14.542969 -6.074219 15 -5.753906 C 15.476562 -5.417969 15.925781 -5.183594 16.347656 -5.042969 L 16.234375 -4.703125 L 16.335938 -5.046875 C 17.296875 -4.765625 18.351562 -4.851562 19.5 -5.300781 C 20.679688 -5.761719 21.847656 -6.582031 23.003906 -7.761719 C 23.078125 -7.839844 23.113281 -7.925781 23.109375 -8.019531 C 23.101562 -8.132812 23.066406 -8.222656 23.003906 -8.285156 Z M 23.003906 -8.285156 "/></g></g><g style="fill:#e4e2dd;fill-opacity:1;"><g transform="translate(132.761715, 213.857885)"><path style="stroke:none" d="M 27.8125 -33.265625 C 29 -32.160156 29.988281 -30.59375 30.78125 -28.5625 C 31.582031 -26.539062 32.113281 -24.15625 32.375 -21.40625 C 32.644531 -18.664062 32.570312 -15.648438 32.15625 -12.359375 C 31.738281 -9.078125 30.894531 -5.601562 29.625 -1.9375 C 28.363281 1.757812 26.972656 4.925781 25.453125 7.5625 C 23.941406 10.207031 22.367188 12.363281 20.734375 14.03125 C 19.097656 15.707031 17.472656 16.941406 15.859375 17.734375 C 14.242188 18.535156 12.726562 18.9375 11.3125 18.9375 C 10.519531 18.9375 9.785156 18.832031 9.109375 18.625 C 7.410156 18.09375 5.976562 17.003906 4.8125 15.359375 C 3.65625 13.722656 2.835938 11.625 2.359375 9.0625 C 1.847656 6.257812 1.765625 3.03125 2.109375 -0.625 C 2.453125 -4.28125 3.203125 -8.234375 4.359375 -12.484375 C 4.890625 -14.347656 5.523438 -16.234375 6.265625 -18.140625 C 7.015625 -20.054688 7.875 -21.847656 8.84375 -23.515625 C 9.820312 -25.191406 10.882812 -26.628906 12.03125 -27.828125 C 13.1875 -29.023438 14.410156 -29.84375 15.703125 -30.28125 C 16.160156 -30.425781 16.601562 -30.523438 17.03125 -30.578125 C 18.445312 -32.628906 19.976562 -33.984375 21.625 -34.640625 C 23.851562 -35.523438 25.914062 -35.066406 27.8125 -33.265625 Z M 28.265625 -2.390625 C 29.453125 -5.878906 30.25 -9.195312 30.65625 -12.34375 C 31.0625 -15.5 31.148438 -18.382812 30.921875 -21 C 30.691406 -23.613281 30.21875 -25.878906 29.5 -27.796875 C 28.78125 -29.722656 27.890625 -31.191406 26.828125 -32.203125 C 26.316406 -32.679688 25.660156 -33.078125 24.859375 -33.390625 C 24.066406 -33.710938 23.164062 -33.671875 22.15625 -33.265625 C 21.601562 -33.035156 21.039062 -32.6875 20.46875 -32.21875 C 19.894531 -31.757812 19.332031 -31.175781 18.78125 -30.46875 C 19.664062 -30.257812 20.523438 -29.828125 21.359375 -29.171875 C 21.515625 -29.046875 21.601562 -28.878906 21.625 -28.671875 C 21.644531 -28.472656 21.59375 -28.300781 21.46875 -28.15625 C 21.34375 -28 21.1875 -27.90625 21 -27.875 C 20.8125 -27.851562 20.628906 -27.90625 20.453125 -28.03125 C 19.585938 -28.6875 18.726562 -29.039062 17.875 -29.09375 C 16.65625 -27.195312 15.515625 -24.617188 14.453125 -21.359375 C 13.390625 -18.097656 12.484375 -14.082031 11.734375 -9.3125 C 10.992188 -4.539062 10.472656 1.078125 10.171875 7.546875 C 10.171875 7.753906 10.09375 7.925781 9.9375 8.0625 C 9.789062 8.195312 9.613281 8.265625 9.40625 8.265625 C 9.207031 8.242188 9.035156 8.15625 8.890625 8 C 8.753906 7.851562 8.695312 7.691406 8.71875 7.515625 C 9.070312 -0.785156 9.878906 -8.03125 11.140625 -14.21875 C 12.410156 -20.414062 14.019531 -25.285156 15.96875 -28.828125 C 14.707031 -28.347656 13.445312 -27.34375 12.1875 -25.8125 C 10.9375 -24.28125 9.753906 -22.335938 8.640625 -19.984375 C 7.535156 -17.640625 6.578125 -15.015625 5.765625 -12.109375 C 4.523438 -7.628906 3.765625 -3.65625 3.484375 -0.1875 C 3.210938 3.269531 3.300781 6.210938 3.75 8.640625 C 4.207031 11.078125 4.941406 13.007812 5.953125 14.4375 C 6.960938 15.863281 8.148438 16.789062 9.515625 17.21875 C 10.859375 17.65625 12.34375 17.582031 13.96875 17 C 15.601562 16.414062 17.269531 15.3125 18.96875 13.6875 C 20.664062 12.070312 22.3125 9.929688 23.90625 7.265625 C 25.5 4.597656 26.953125 1.378906 28.265625 -2.390625 Z M 28.265625 -2.390625 "/></g></g><g style="fill:#e4e2dd;fill-opacity:1;"><g transform="translate(167.622682, 213.857885)"><path style="stroke:none" d="M 15.140625 -8.1875 C 15.285156 -8.09375 15.382812 -7.941406 15.4375 -7.734375 C 15.488281 -7.535156 15.460938 -7.359375 15.359375 -7.203125 C 15.160156 -6.878906 14.835938 -6.375 14.390625 -5.6875 C 13.953125 -5.007812 13.421875 -4.257812 12.796875 -3.4375 C 12.179688 -2.613281 11.523438 -1.816406 10.828125 -1.046875 C 10.128906 -0.273438 9.4375 0.359375 8.75 0.859375 C 8.070312 1.367188 7.441406 1.625 6.859375 1.625 C 6.660156 1.625 6.484375 1.585938 6.328125 1.515625 C 5.703125 1.285156 5.304688 0.707031 5.140625 -0.21875 C 4.972656 -1.15625 5.03125 -2.507812 5.3125 -4.28125 C 4.976562 -3.851562 4.625 -3.410156 4.25 -2.953125 C 3.875 -2.503906 3.46875 -2.085938 3.03125 -1.703125 C 2.375 -1.148438 1.816406 -0.921875 1.359375 -1.015625 C 0.910156 -1.117188 0.609375 -1.25 0.453125 -1.40625 C -0.00390625 -1.78125 -0.285156 -2.351562 -0.390625 -3.125 C -0.503906 -3.894531 -0.46875 -4.753906 -0.28125 -5.703125 C -0.09375 -6.648438 0.253906 -7.566406 0.765625 -8.453125 C 0.859375 -8.628906 1.003906 -8.742188 1.203125 -8.796875 C 1.410156 -8.847656 1.601562 -8.820312 1.78125 -8.71875 C 1.957031 -8.625 2.070312 -8.476562 2.125 -8.28125 C 2.175781 -8.09375 2.148438 -7.910156 2.046875 -7.734375 C 1.585938 -6.972656 1.28125 -6.21875 1.125 -5.46875 C 0.976562 -4.726562 0.9375 -4.09375 1 -3.5625 C 1.0625 -3.03125 1.179688 -2.691406 1.359375 -2.546875 C 1.460938 -2.460938 1.597656 -2.476562 1.765625 -2.59375 C 1.929688 -2.707031 2.039062 -2.78125 2.09375 -2.8125 C 2.570312 -3.238281 3.023438 -3.726562 3.453125 -4.28125 C 3.878906 -4.84375 4.242188 -5.347656 4.546875 -5.796875 C 4.953125 -6.359375 5.285156 -6.769531 5.546875 -7.03125 C 5.816406 -7.300781 6.128906 -7.359375 6.484375 -7.203125 C 6.835938 -7.078125 7.015625 -6.800781 7.015625 -6.375 C 7.015625 -5.945312 6.953125 -5.363281 6.828125 -4.625 C 6.578125 -3.15625 6.460938 -2.085938 6.484375 -1.421875 C 6.515625 -0.753906 6.578125 -0.320312 6.671875 -0.125 C 6.773438 0.0625 6.835938 0.15625 6.859375 0.15625 C 7.171875 0.28125 8.007812 -0.316406 9.375 -1.640625 C 10.738281 -2.972656 12.316406 -5.082031 14.109375 -7.96875 C 14.210938 -8.144531 14.363281 -8.25 14.5625 -8.28125 C 14.769531 -8.320312 14.960938 -8.289062 15.140625 -8.1875 Z M 15.140625 -8.1875 "/></g></g><g style="fill:#e4e2dd;fill-opacity:1;"><g transform="translate(181.202904, 213.857885)"><path style="stroke:none" d="M 32.015625 -22.390625 C 32.140625 -22.234375 32.191406 -22.050781 32.171875 -21.84375 C 32.148438 -21.644531 32.050781 -21.484375 31.875 -21.359375 C 31.5625 -21.160156 31.269531 -21.171875 31 -21.390625 C 30.664062 -21.523438 29.910156 -21.613281 28.734375 -21.65625 C 27.554688 -21.707031 26.082031 -21.738281 24.3125 -21.75 C 22.539062 -21.769531 20.59375 -21.765625 18.46875 -21.734375 C 16.34375 -21.710938 14.160156 -21.679688 11.921875 -21.640625 C 9.691406 -21.609375 7.523438 -21.566406 5.421875 -21.515625 C 4.640625 -18.222656 3.816406 -14.644531 2.953125 -10.78125 C 2.097656 -6.925781 1.253906 -3.015625 0.421875 0.953125 C -0.671875 6.160156 -1.515625 10.429688 -2.109375 13.765625 C -2.703125 17.109375 -3.085938 19.523438 -3.265625 21.015625 C -3.210938 21.015625 -3.160156 21.03125 -3.109375 21.0625 C -2.910156 21.101562 -2.769531 21.21875 -2.6875 21.40625 C -2.613281 21.601562 -2.613281 21.789062 -2.6875 21.96875 C -2.84375 22.394531 -3.015625 22.789062 -3.203125 23.15625 C -3.390625 23.519531 -3.648438 23.703125 -3.984375 23.703125 C -4.054688 23.703125 -4.144531 23.691406 -4.25 23.671875 C -4.601562 23.546875 -4.796875 23.273438 -4.828125 22.859375 C -4.867188 22.441406 -4.835938 21.863281 -4.734375 21.125 C -4.640625 20.0625 -4.414062 18.535156 -4.0625 16.546875 C -3.757812 14.671875 -3.363281 12.476562 -2.875 9.96875 C -2.394531 7.46875 -1.84375 4.726562 -1.21875 1.75 C -0.382812 -2.300781 0.472656 -6.320312 1.359375 -10.3125 C 2.242188 -14.3125 3.09375 -18.03125 3.90625 -21.46875 C 2.695312 -21.445312 1.546875 -21.421875 0.453125 -21.390625 C -0.628906 -21.367188 -1.613281 -21.347656 -2.5 -21.328125 C -4.195312 -21.273438 -5.675781 -21.234375 -6.9375 -21.203125 C -8.207031 -21.179688 -9.109375 -21.171875 -9.640625 -21.171875 C -9.835938 -21.171875 -10.003906 -21.238281 -10.140625 -21.375 C -10.285156 -21.519531 -10.359375 -21.691406 -10.359375 -21.890625 C -10.359375 -22.085938 -10.285156 -22.253906 -10.140625 -22.390625 C -10.003906 -22.535156 -9.835938 -22.609375 -9.640625 -22.609375 C -9.109375 -22.609375 -8.210938 -22.625 -6.953125 -22.65625 C -5.703125 -22.695312 -4.234375 -22.742188 -2.546875 -22.796875 C -1.328125 -22.828125 -0.148438 -22.851562 0.984375 -22.875 C 2.117188 -22.90625 3.21875 -22.929688 4.28125 -22.953125 C 4.664062 -24.566406 5.039062 -26.085938 5.40625 -27.515625 C 5.769531 -28.953125 6.117188 -30.265625 6.453125 -31.453125 C 6.503906 -31.648438 6.617188 -31.800781 6.796875 -31.90625 C 6.972656 -32.007812 7.148438 -32.035156 7.328125 -31.984375 C 7.523438 -31.929688 7.671875 -31.816406 7.765625 -31.640625 C 7.867188 -31.460938 7.898438 -31.273438 7.859375 -31.078125 C 7.242188 -28.816406 6.546875 -26.117188 5.765625 -22.984375 C 9.710938 -23.066406 13.085938 -23.125 15.890625 -23.15625 C 18.703125 -23.195312 21.054688 -23.21875 22.953125 -23.21875 C 24.847656 -23.21875 26.382812 -23.191406 27.5625 -23.140625 C 28.738281 -23.085938 29.628906 -23.03125 30.234375 -22.96875 C 30.835938 -22.90625 31.265625 -22.820312 31.515625 -22.71875 C 31.773438 -22.625 31.941406 -22.515625 32.015625 -22.390625 Z M 32.015625 -22.390625 "/></g></g><g style="fill:#e4e2dd;fill-opacity:1;"><g transform="translate(186.248066, 213.857885)"><path style="stroke:none" d="M 11.15625 -35.546875 C 11.476562 -35.066406 11.484375 -34.09375 11.171875 -32.625 C 10.859375 -31.15625 10.207031 -29.335938 9.21875 -27.171875 C 8.226562 -25.015625 6.910156 -22.625 5.265625 -20 C 5.242188 -19.96875 5.222656 -19.941406 5.203125 -19.921875 C 4.546875 -17.234375 3.894531 -14.5 3.25 -11.71875 C 2.601562 -8.9375 1.988281 -6.203125 1.40625 -3.515625 C 0.820312 -0.835938 0.289062 1.679688 -0.1875 4.046875 C -0.664062 6.410156 -1.078125 8.515625 -1.421875 10.359375 C -1.765625 12.203125 -2.007812 13.679688 -2.15625 14.796875 C -2.132812 14.796875 -2.113281 14.796875 -2.09375 14.796875 C -1.882812 14.867188 -1.734375 14.992188 -1.640625 15.171875 C -1.554688 15.347656 -1.550781 15.539062 -1.625 15.75 C -1.800781 16.226562 -1.984375 16.660156 -2.171875 17.046875 C -2.367188 17.441406 -2.628906 17.640625 -2.953125 17.640625 C -3.035156 17.640625 -3.125 17.628906 -3.21875 17.609375 C -3.445312 17.523438 -3.613281 17.363281 -3.71875 17.125 C -3.820312 16.882812 -3.832031 16.40625 -3.75 15.6875 C -3.675781 14.96875 -3.515625 13.863281 -3.265625 12.375 C -2.804688 9.632812 -2.125 6.066406 -1.21875 1.671875 C -0.5625 -1.410156 0.125 -4.550781 0.84375 -7.75 C 1.570312 -10.957031 2.289062 -14.046875 3 -17.015625 C 3.707031 -19.984375 4.390625 -22.679688 5.046875 -25.109375 C 5.171875 -25.585938 5.359375 -26.257812 5.609375 -27.125 C 5.867188 -27.988281 6.160156 -28.910156 6.484375 -29.890625 C 6.816406 -30.878906 7.179688 -31.828125 7.578125 -32.734375 C 7.984375 -33.648438 8.398438 -34.40625 8.828125 -35 C 9.265625 -35.59375 9.695312 -35.925781 10.125 -36 C 10.5625 -36.070312 10.90625 -35.921875 11.15625 -35.546875 Z M 6.53125 -25 C 7.738281 -27.28125 8.585938 -29.175781 9.078125 -30.6875 C 9.578125 -32.207031 9.863281 -33.304688 9.9375 -33.984375 C 9.582031 -33.484375 9.101562 -32.53125 8.5 -31.125 C 7.894531 -29.71875 7.238281 -27.675781 6.53125 -25 Z M 6.53125 -25 "/></g></g><g style="fill:#e4e2dd;fill-opacity:1;"><g transform="translate(192.013977, 213.857885)"><path style="stroke:none" d="M 15.890625 -8.421875 C 16.066406 -8.347656 16.1875 -8.210938 16.25 -8.015625 C 16.3125 -7.828125 16.304688 -7.644531 16.234375 -7.46875 C 15.753906 -6.488281 15.226562 -5.503906 14.65625 -4.515625 C 14.09375 -3.523438 13.5 -2.617188 12.875 -1.796875 C 12.257812 -0.972656 11.625 -0.316406 10.96875 0.171875 C 10.3125 0.660156 9.648438 0.90625 8.984375 0.90625 C 8.859375 0.90625 8.722656 0.894531 8.578125 0.875 C 6.878906 0.539062 5.828125 -1.734375 5.421875 -5.953125 C 4.992188 -5.367188 4.492188 -4.71875 3.921875 -4 C 3.359375 -3.28125 2.757812 -2.566406 2.125 -1.859375 C 2.019531 -1.753906 1.851562 -1.59375 1.625 -1.375 C 1.40625 -1.164062 1.140625 -1 0.828125 -0.875 C 0.523438 -0.75 0.222656 -0.757812 -0.078125 -0.90625 C -0.679688 -1.132812 -0.972656 -1.796875 -0.953125 -2.890625 C -0.953125 -3.515625 -0.832031 -4.296875 -0.59375 -5.234375 C -0.351562 -6.171875 -0.015625 -7.113281 0.421875 -8.0625 C 0.867188 -9.007812 1.390625 -9.847656 1.984375 -10.578125 C 2.585938 -11.316406 3.253906 -11.8125 3.984375 -12.0625 C 4.441406 -12.238281 5 -12.269531 5.65625 -12.15625 C 6.3125 -12.039062 6.992188 -11.566406 7.703125 -10.734375 C 7.828125 -10.585938 7.882812 -10.410156 7.875 -10.203125 C 7.863281 -10.003906 7.78125 -9.84375 7.625 -9.71875 C 7.46875 -9.582031 7.289062 -9.519531 7.09375 -9.53125 C 6.894531 -9.550781 6.726562 -9.632812 6.59375 -9.78125 C 5.988281 -10.488281 5.460938 -10.820312 5.015625 -10.78125 C 4.578125 -10.75 4.207031 -10.617188 3.90625 -10.390625 C 3.351562 -9.984375 2.847656 -9.398438 2.390625 -8.640625 C 1.929688 -7.890625 1.550781 -7.09375 1.25 -6.25 C 0.945312 -5.414062 0.734375 -4.640625 0.609375 -3.921875 C 0.484375 -3.203125 0.445312 -2.679688 0.5 -2.359375 C 0.570312 -2.398438 0.648438 -2.457031 0.734375 -2.53125 C 0.828125 -2.613281 0.925781 -2.71875 1.03125 -2.84375 C 1.78125 -3.675781 2.472656 -4.503906 3.109375 -5.328125 C 3.742188 -6.148438 4.285156 -6.878906 4.734375 -7.515625 C 4.867188 -7.691406 4.988281 -7.859375 5.09375 -8.015625 C 5.207031 -8.179688 5.316406 -8.328125 5.421875 -8.453125 C 5.628906 -8.710938 5.894531 -8.789062 6.21875 -8.6875 C 6.550781 -8.613281 6.726562 -8.398438 6.75 -8.046875 C 6.820312 -6.398438 6.953125 -5.078125 7.140625 -4.078125 C 7.335938 -3.078125 7.550781 -2.328125 7.78125 -1.828125 C 8.007812 -1.335938 8.222656 -1.003906 8.421875 -0.828125 C 8.617188 -0.648438 8.769531 -0.5625 8.875 -0.5625 C 9.351562 -0.46875 10.125 -0.960938 11.1875 -2.046875 C 12.25 -3.140625 13.488281 -5.148438 14.90625 -8.078125 C 15.007812 -8.285156 15.15625 -8.421875 15.34375 -8.484375 C 15.53125 -8.546875 15.710938 -8.523438 15.890625 -8.421875 Z M 15.890625 -8.421875 "/></g></g><g style="fill:#e4e2dd;fill-opacity:1;"><g transform="translate(206.125273, 213.857885)"><path style="stroke:none" d="M 23.25 -8.53125 C 23.382812 -8.40625 23.457031 -8.238281 23.46875 -8.03125 C 23.476562 -7.832031 23.40625 -7.660156 23.25 -7.515625 C 22.0625 -6.296875 20.851562 -5.445312 19.625 -4.96875 C 18.40625 -4.488281 17.273438 -4.398438 16.234375 -4.703125 C 15.773438 -4.859375 15.289062 -5.113281 14.78125 -5.46875 C 14.28125 -5.820312 13.84375 -6.375 13.46875 -7.125 C 13.09375 -5.707031 12.660156 -4.359375 12.171875 -3.078125 C 11.640625 -1.679688 11.164062 -0.648438 10.75 0.015625 C 10.332031 0.691406 9.957031 1.132812 9.625 1.34375 C 9.300781 1.5625 9.015625 1.671875 8.765625 1.671875 C 8.304688 1.671875 7.953125 1.5 7.703125 1.15625 C 7.453125 0.8125 7.257812 0.4375 7.125 0.03125 C 7 -0.363281 6.910156 -0.675781 6.859375 -0.90625 C 6.785156 -1.34375 6.722656 -1.847656 6.671875 -2.421875 C 5.816406 -1.085938 5.128906 -0.0859375 4.609375 0.578125 C 4.085938 1.253906 3.625 1.78125 3.21875 2.15625 C 2.894531 2.488281 2.59375 2.710938 2.3125 2.828125 C 2.03125 2.941406 1.78125 3 1.5625 3 C 1.382812 3 1.21875 2.972656 1.0625 2.921875 C 0.90625 2.867188 0.789062 2.804688 0.71875 2.734375 C 0.0820312 2.328125 -0.296875 1.453125 -0.421875 0.109375 C -0.546875 -1.222656 -0.429688 -2.863281 -0.078125 -4.8125 C 0.273438 -6.757812 0.859375 -8.875 1.671875 -11.15625 C 1.742188 -11.332031 1.867188 -11.460938 2.046875 -11.546875 C 2.222656 -11.640625 2.414062 -11.648438 2.625 -11.578125 C 2.800781 -11.523438 2.929688 -11.398438 3.015625 -11.203125 C 3.109375 -11.015625 3.113281 -10.832031 3.03125 -10.65625 C 2.125 -8.125 1.535156 -5.976562 1.265625 -4.21875 C 1.003906 -2.46875 0.921875 -1.109375 1.015625 -0.140625 C 1.117188 0.816406 1.285156 1.367188 1.515625 1.515625 C 1.617188 1.585938 1.859375 1.445312 2.234375 1.09375 C 2.535156 0.820312 2.867188 0.453125 3.234375 -0.015625 C 3.609375 -0.484375 4.066406 -1.125 4.609375 -1.9375 C 5.148438 -2.75 5.835938 -3.8125 6.671875 -5.125 C 6.847656 -5.425781 7.113281 -5.523438 7.46875 -5.421875 C 7.820312 -5.316406 8 -5.078125 8 -4.703125 C 8 -4.242188 8.023438 -3.6875 8.078125 -3.03125 C 8.128906 -2.375 8.207031 -1.753906 8.3125 -1.171875 C 8.40625 -0.742188 8.488281 -0.425781 8.5625 -0.21875 C 8.644531 -0.0195312 8.710938 0.113281 8.765625 0.1875 C 9.015625 0.0390625 9.320312 -0.382812 9.6875 -1.09375 C 10.0625 -1.800781 10.441406 -2.660156 10.828125 -3.671875 C 11.222656 -4.691406 11.578125 -5.753906 11.890625 -6.859375 C 12.210938 -7.972656 12.4375 -9.015625 12.5625 -9.984375 C 12.632812 -10.378906 12.875 -10.578125 13.28125 -10.578125 C 13.6875 -10.609375 13.925781 -10.421875 14 -10.015625 C 14.425781 -7.816406 15.3125 -6.515625 16.65625 -6.109375 C 17.414062 -5.878906 18.285156 -5.976562 19.265625 -6.40625 C 20.253906 -6.84375 21.242188 -7.550781 22.234375 -8.53125 C 22.359375 -8.6875 22.519531 -8.765625 22.71875 -8.765625 C 22.925781 -8.765625 23.101562 -8.6875 23.25 -8.53125 Z M 23.25 -8.53125 "/></g></g><g transform="matrix(1,0,0,1,93,240)"><g clip-path="url(#143b74b30f)"><g style="fill:#e4e2dd;fill-opacity:1;"><g transform="translate(1.249345, 7.333793)"><path style="stroke:none" d="M 0.515625 0 L 0.515625 -4.328125 L 1.5 -4.328125 L 1.5 -0.921875 L 3.390625 -0.921875 L 3.390625 0 Z M 0.515625 0 "/></g></g><g style="fill:#e4e2dd;fill-opacity:1;"><g transform="translate(7.867384, 7.333793)"><path style="stroke:none" d="M 2.296875 0.09375 C 1.910156 0.09375 1.582031 0.0195312 1.3125 -0.125 C 1.050781 -0.28125 0.84375 -0.5 0.6875 -0.78125 C 0.539062 -1.0625 0.46875 -1.394531 0.46875 -1.78125 L 0.46875 -4.328125 L 1.453125 -4.328125 L 1.453125 -1.84375 C 1.453125 -1.175781 1.734375 -0.84375 2.296875 -0.84375 C 2.847656 -0.84375 3.125 -1.175781 3.125 -1.84375 L 3.125 -4.328125 L 4.109375 -4.328125 L 4.109375 -1.78125 C 4.109375 -1.394531 4.03125 -1.0625 3.875 -0.78125 C 3.726562 -0.5 3.519531 -0.28125 3.25 -0.125 C 2.988281 0.0195312 2.671875 0.09375 2.296875 0.09375 Z M 2.296875 0.09375 "/></g></g><g style="fill:#e4e2dd;fill-opacity:1;"><g transform="translate(15.499784, 7.333793)"><path style="stroke:none" d="M 0.171875 0 L 1.640625 -2.21875 L 0.234375 -4.328125 L 1.359375 -4.328125 L 1.875 -3.53125 L 2.28125 -2.921875 L 3.203125 -4.328125 L 4.3125 -4.328125 L 2.921875 -2.21875 L 4.390625 0 L 3.234375 0 L 2.640625 -0.921875 L 2.28125 -1.46875 L 1.921875 -0.921875 L 1.328125 0 Z M 0.171875 0 "/></g></g><g style="fill:#e4e2dd;fill-opacity:1;"><g transform="translate(23.113622, 7.333793)"><path style="stroke:none" d="M 2.296875 0.09375 C 1.910156 0.09375 1.582031 0.0195312 1.3125 -0.125 C 1.050781 -0.28125 0.84375 -0.5 0.6875 -0.78125 C 0.539062 -1.0625 0.46875 -1.394531 0.46875 -1.78125 L 0.46875 -4.328125 L 1.453125 -4.328125 L 1.453125 -1.84375 C 1.453125 -1.175781 1.734375 -0.84375 2.296875 -0.84375 C 2.847656 -0.84375 3.125 -1.175781 3.125 -1.84375 L 3.125 -4.328125 L 4.109375 -4.328125 L 4.109375 -1.78125 C 4.109375 -1.394531 4.03125 -1.0625 3.875 -0.78125 C 3.726562 -0.5 3.519531 -0.28125 3.25 -0.125 C 2.988281 0.0195312 2.671875 0.09375 2.296875 0.09375 Z M 2.296875 0.09375 "/></g></g><g style="fill:#e4e2dd;fill-opacity:1;"><g transform="translate(30.746021, 7.333793)"><path style="stroke:none" d="M 0.515625 0 L 0.515625 -4.328125 L 2.375 -4.328125 C 2.695312 -4.328125 2.976562 -4.265625 3.21875 -4.140625 C 3.46875 -4.023438 3.65625 -3.851562 3.78125 -3.625 C 3.914062 -3.40625 3.984375 -3.144531 3.984375 -2.84375 C 3.984375 -2.519531 3.910156 -2.242188 3.765625 -2.015625 C 3.628906 -1.785156 3.429688 -1.613281 3.171875 -1.5 L 4.0625 0 L 2.921875 0 L 2.15625 -1.34375 L 1.5 -1.34375 L 1.5 0 Z M 1.484375 -2.171875 L 2.234375 -2.171875 C 2.484375 -2.171875 2.671875 -2.226562 2.796875 -2.34375 C 2.929688 -2.457031 3 -2.617188 3 -2.828125 C 3 -3.046875 2.929688 -3.207031 2.796875 -3.3125 C 2.671875 -3.425781 2.484375 -3.484375 2.234375 -3.484375 L 1.484375 -3.484375 Z M 1.484375 -2.171875 "/></g></g><g style="fill:#e4e2dd;fill-opacity:1;"><g transform="translate(38.155754, 7.333793)"><path style="stroke:none" d="M 1.65625 0 L 1.65625 -1.515625 L 0.0625 -4.328125 L 1.171875 -4.328125 L 1.71875 -3.328125 L 2.140625 -2.546875 L 2.578125 -3.328125 L 3.109375 -4.328125 L 4.21875 -4.328125 L 2.640625 -1.53125 L 2.640625 0 Z M 1.65625 0 "/></g></g><g style="fill:#e4e2dd;fill-opacity:1;"><g transform="translate(2.038585, 15.580544)"><path style="stroke:none" d="M 0.515625 0 L 0.515625 -4.328125 L 2.234375 -4.328125 C 2.691406 -4.328125 3.09375 -4.234375 3.4375 -4.046875 C 3.78125 -3.867188 4.046875 -3.617188 4.234375 -3.296875 C 4.421875 -2.972656 4.515625 -2.597656 4.515625 -2.171875 C 4.515625 -1.734375 4.421875 -1.351562 4.234375 -1.03125 C 4.046875 -0.707031 3.78125 -0.453125 3.4375 -0.265625 C 3.09375 -0.0859375 2.691406 0 2.234375 0 Z M 1.5 -0.90625 L 2.21875 -0.90625 C 2.46875 -0.90625 2.691406 -0.957031 2.890625 -1.0625 C 3.085938 -1.164062 3.238281 -1.3125 3.34375 -1.5 C 3.457031 -1.6875 3.515625 -1.910156 3.515625 -2.171875 C 3.515625 -2.421875 3.457031 -2.640625 3.34375 -2.828125 C 3.238281 -3.015625 3.085938 -3.160156 2.890625 -3.265625 C 2.691406 -3.367188 2.460938 -3.421875 2.203125 -3.421875 L 1.5 -3.421875 Z M 1.5 -0.90625 "/></g></g><g style="fill:#e4e2dd;fill-opacity:1;"><g transform="translate(9.868907, 15.580544)"><path style="stroke:none" d="M 0.515625 0 L 0.515625 -4.328125 L 3.359375 -4.328125 L 3.359375 -3.5 L 1.5 -3.5 L 1.5 -2.609375 L 3.203125 -2.609375 L 3.203125 -1.78125 L 1.5 -1.78125 L 1.5 -0.828125 L 3.4375 -0.828125 L 3.4375 0 Z M 0.515625 0 "/></g></g><g style="fill:#e4e2dd;fill-opacity:1;"><g transform="translate(16.672499, 15.580544)"><path style="stroke:none" d="M 2.03125 0.09375 C 1.664062 0.09375 1.351562 0.0351562 1.09375 -0.078125 C 0.832031 -0.203125 0.628906 -0.375 0.484375 -0.59375 C 0.335938 -0.820312 0.265625 -1.082031 0.265625 -1.375 L 1.234375 -1.375 C 1.234375 -1.175781 1.304688 -1.015625 1.453125 -0.890625 C 1.597656 -0.773438 1.785156 -0.71875 2.015625 -0.71875 C 2.222656 -0.71875 2.382812 -0.757812 2.5 -0.84375 C 2.625 -0.925781 2.6875 -1.039062 2.6875 -1.1875 C 2.6875 -1.332031 2.613281 -1.453125 2.46875 -1.546875 C 2.332031 -1.648438 2.109375 -1.734375 1.796875 -1.796875 C 1.296875 -1.898438 0.921875 -2.0625 0.671875 -2.28125 C 0.429688 -2.5 0.3125 -2.785156 0.3125 -3.140625 C 0.3125 -3.535156 0.453125 -3.847656 0.734375 -4.078125 C 1.023438 -4.304688 1.421875 -4.421875 1.921875 -4.421875 C 2.265625 -4.421875 2.5625 -4.359375 2.8125 -4.234375 C 3.0625 -4.117188 3.253906 -3.953125 3.390625 -3.734375 C 3.535156 -3.523438 3.609375 -3.273438 3.609375 -2.984375 L 2.65625 -2.984375 C 2.65625 -3.179688 2.59375 -3.332031 2.46875 -3.4375 C 2.34375 -3.550781 2.164062 -3.609375 1.9375 -3.609375 C 1.726562 -3.609375 1.5625 -3.566406 1.4375 -3.484375 C 1.320312 -3.410156 1.265625 -3.300781 1.265625 -3.15625 C 1.265625 -3.019531 1.332031 -2.90625 1.46875 -2.8125 C 1.601562 -2.726562 1.832031 -2.644531 2.15625 -2.5625 C 2.695312 -2.4375 3.085938 -2.265625 3.328125 -2.046875 C 3.566406 -1.835938 3.6875 -1.5625 3.6875 -1.21875 C 3.6875 -0.8125 3.535156 -0.488281 3.234375 -0.25 C 2.941406 -0.0195312 2.539062 0.09375 2.03125 0.09375 Z M 2.03125 0.09375 "/></g></g><g style="fill:#e4e2dd;fill-opacity:1;"><g transform="translate(23.692567, 15.580544)"><path style="stroke:none" d="M 0.515625 0 L 0.515625 -4.328125 L 1.5 -4.328125 L 1.5 0 Z M 0.515625 0 "/></g></g><g style="fill:#e4e2dd;fill-opacity:1;"><g transform="translate(28.770515, 15.580544)"><path style="stroke:none" d="M 2.53125 0.09375 C 2.09375 0.09375 1.703125 0 1.359375 -0.1875 C 1.015625 -0.382812 0.742188 -0.648438 0.546875 -0.984375 C 0.359375 -1.328125 0.265625 -1.722656 0.265625 -2.171875 C 0.265625 -2.609375 0.359375 -2.992188 0.546875 -3.328125 C 0.742188 -3.671875 1.007812 -3.9375 1.34375 -4.125 C 1.6875 -4.320312 2.078125 -4.421875 2.515625 -4.421875 C 2.867188 -4.421875 3.191406 -4.359375 3.484375 -4.234375 C 3.785156 -4.109375 4.039062 -3.929688 4.25 -3.703125 C 4.457031 -3.484375 4.601562 -3.222656 4.6875 -2.921875 L 3.625 -2.921875 C 3.53125 -3.109375 3.382812 -3.253906 3.1875 -3.359375 C 3 -3.460938 2.78125 -3.515625 2.53125 -3.515625 C 2.28125 -3.515625 2.054688 -3.457031 1.859375 -3.34375 C 1.671875 -3.226562 1.519531 -3.066406 1.40625 -2.859375 C 1.300781 -2.660156 1.25 -2.429688 1.25 -2.171875 C 1.25 -1.910156 1.300781 -1.675781 1.40625 -1.46875 C 1.519531 -1.269531 1.671875 -1.109375 1.859375 -0.984375 C 2.054688 -0.867188 2.285156 -0.8125 2.546875 -0.8125 C 2.867188 -0.8125 3.132812 -0.890625 3.34375 -1.046875 C 3.550781 -1.210938 3.6875 -1.429688 3.75 -1.703125 L 2.34375 -1.703125 L 2.34375 -2.453125 L 4.796875 -2.453125 C 4.816406 -2.085938 4.773438 -1.75 4.671875 -1.4375 C 4.578125 -1.125 4.429688 -0.851562 4.234375 -0.625 C 4.035156 -0.394531 3.789062 -0.21875 3.5 -0.09375 C 3.21875 0.03125 2.894531 0.09375 2.53125 0.09375 Z M 2.53125 0.09375 "/></g></g><g style="fill:#e4e2dd;fill-opacity:1;"><g transform="translate(36.87298, 15.580544)"><path style="stroke:none" d="M 0.515625 0 L 0.515625 -4.328125 L 1.359375 -4.328125 L 3.265625 -1.703125 L 3.265625 -4.328125 L 4.25 -4.328125 L 4.25 0 L 3.40625 0 L 1.5 -2.65625 L 1.5 0 Z M 0.515625 0 "/></g></g></g></g><g transform="matrix(1,0,0,1,228,240)"><g clip-path="url(#7f1b38f3b4)"><g style="fill:#e4e2dd;fill-opacity:1;"><g transform="translate(14.254419, 7.333793)"><path style="stroke:none" d="M 0.265625 0 L 0.265625 -0.71875 L 2.234375 -3.4375 L 0.328125 -3.4375 L 0.328125 -4.328125 L 3.515625 -4.328125 L 3.515625 -3.625 L 1.546875 -0.890625 L 3.5625 -0.890625 L 3.5625 0 Z M 0.265625 0 "/></g></g><g style="fill:#e4e2dd;fill-opacity:1;"><g transform="translate(21.132231, 7.333793)"><path style="stroke:none" d="M 0.515625 0 L 0.515625 -4.328125 L 3.359375 -4.328125 L 3.359375 -3.5 L 1.5 -3.5 L 1.5 -2.609375 L 3.203125 -2.609375 L 3.203125 -1.78125 L 1.5 -1.78125 L 1.5 -0.828125 L 3.4375 -0.828125 L 3.4375 0 Z M 0.515625 0 "/></g></g><g style="fill:#e4e2dd;fill-opacity:1;"><g transform="translate(27.935822, 7.333793)"><path style="stroke:none" d="M 0.515625 0 L 0.515625 -4.328125 L 2.375 -4.328125 C 2.695312 -4.328125 2.976562 -4.265625 3.21875 -4.140625 C 3.46875 -4.023438 3.65625 -3.851562 3.78125 -3.625 C 3.914062 -3.40625 3.984375 -3.144531 3.984375 -2.84375 C 3.984375 -2.519531 3.910156 -2.242188 3.765625 -2.015625 C 3.628906 -1.785156 3.429688 -1.613281 3.171875 -1.5 L 4.0625 0 L 2.921875 0 L 2.15625 -1.34375 L 1.5 -1.34375 L 1.5 0 Z M 1.484375 -2.171875 L 2.234375 -2.171875 C 2.484375 -2.171875 2.671875 -2.226562 2.796875 -2.34375 C 2.929688 -2.457031 3 -2.617188 3 -2.828125 C 3 -3.046875 2.929688 -3.207031 2.796875 -3.3125 C 2.671875 -3.425781 2.484375 -3.484375 2.234375 -3.484375 L 1.484375 -3.484375 Z M 1.484375 -2.171875 "/></g></g><g style="fill:#e4e2dd;fill-opacity:1;"><g transform="translate(35.345556, 7.333793)"><path style="stroke:none" d="M 2.578125 0.09375 C 2.128906 0.09375 1.726562 0 1.375 -0.1875 C 1.03125 -0.382812 0.757812 -0.648438 0.5625 -0.984375 C 0.363281 -1.328125 0.265625 -1.722656 0.265625 -2.171875 C 0.265625 -2.609375 0.363281 -2.992188 0.5625 -3.328125 C 0.757812 -3.671875 1.03125 -3.9375 1.375 -4.125 C 1.726562 -4.320312 2.128906 -4.421875 2.578125 -4.421875 C 3.023438 -4.421875 3.421875 -4.320312 3.765625 -4.125 C 4.117188 -3.9375 4.394531 -3.671875 4.59375 -3.328125 C 4.789062 -2.992188 4.890625 -2.609375 4.890625 -2.171875 C 4.890625 -1.722656 4.789062 -1.328125 4.59375 -0.984375 C 4.394531 -0.648438 4.117188 -0.382812 3.765625 -0.1875 C 3.421875 0 3.023438 0.09375 2.578125 0.09375 Z M 1.265625 -2.171875 C 1.265625 -1.910156 1.320312 -1.679688 1.4375 -1.484375 C 1.550781 -1.285156 1.703125 -1.128906 1.890625 -1.015625 C 2.085938 -0.898438 2.316406 -0.84375 2.578125 -0.84375 C 2.835938 -0.84375 3.0625 -0.898438 3.25 -1.015625 C 3.445312 -1.128906 3.597656 -1.285156 3.703125 -1.484375 C 3.816406 -1.679688 3.875 -1.910156 3.875 -2.171875 C 3.875 -2.429688 3.816406 -2.660156 3.703125 -2.859375 C 3.597656 -3.054688 3.445312 -3.207031 3.25 -3.3125 C 3.0625 -3.425781 2.835938 -3.484375 2.578125 -3.484375 C 2.316406 -3.484375 2.085938 -3.425781 1.890625 -3.3125 C 1.703125 -3.207031 1.550781 -3.054688 1.4375 -2.859375 C 1.320312 -2.660156 1.265625 -2.429688 1.265625 -2.171875 Z M 1.265625 -2.171875 "/></g></g><g style="fill:#e4e2dd;fill-opacity:1;"><g transform="translate(1.312496, 15.580544)"><path style="stroke:none" d="M 0.515625 0 L 0.515625 -4.328125 L 2.453125 -4.328125 C 2.898438 -4.328125 3.25 -4.222656 3.5 -4.015625 C 3.757812 -3.804688 3.890625 -3.523438 3.890625 -3.171875 C 3.890625 -2.960938 3.84375 -2.773438 3.75 -2.609375 C 3.664062 -2.453125 3.539062 -2.328125 3.375 -2.234375 C 3.582031 -2.140625 3.742188 -2.003906 3.859375 -1.828125 C 3.972656 -1.648438 4.03125 -1.445312 4.03125 -1.21875 C 4.03125 -0.96875 3.96875 -0.75 3.84375 -0.5625 C 3.71875 -0.382812 3.546875 -0.242188 3.328125 -0.140625 C 3.109375 -0.046875 2.851562 0 2.5625 0 Z M 1.484375 -0.78125 L 2.40625 -0.78125 C 2.601562 -0.78125 2.753906 -0.820312 2.859375 -0.90625 C 2.960938 -1 3.015625 -1.128906 3.015625 -1.296875 C 3.015625 -1.460938 2.960938 -1.585938 2.859375 -1.671875 C 2.753906 -1.765625 2.601562 -1.8125 2.40625 -1.8125 L 1.484375 -1.8125 Z M 1.484375 -2.5625 L 2.3125 -2.5625 C 2.5 -2.5625 2.640625 -2.601562 2.734375 -2.6875 C 2.835938 -2.78125 2.890625 -2.90625 2.890625 -3.0625 C 2.890625 -3.21875 2.835938 -3.335938 2.734375 -3.421875 C 2.640625 -3.503906 2.5 -3.546875 2.3125 -3.546875 L 1.484375 -3.546875 Z M 1.484375 -2.5625 "/></g></g><g style="fill:#e4e2dd;fill-opacity:1;"><g transform="translate(8.62945, 15.580544)"><path style="stroke:none" d="M 2.296875 0.09375 C 1.910156 0.09375 1.582031 0.0195312 1.3125 -0.125 C 1.050781 -0.28125 0.84375 -0.5 0.6875 -0.78125 C 0.539062 -1.0625 0.46875 -1.394531 0.46875 -1.78125 L 0.46875 -4.328125 L 1.453125 -4.328125 L 1.453125 -1.84375 C 1.453125 -1.175781 1.734375 -0.84375 2.296875 -0.84375 C 2.847656 -0.84375 3.125 -1.175781 3.125 -1.84375 L 3.125 -4.328125 L 4.109375 -4.328125 L 4.109375 -1.78125 C 4.109375 -1.394531 4.03125 -1.0625 3.875 -0.78125 C 3.726562 -0.5 3.519531 -0.28125 3.25 -0.125 C 2.988281 0.0195312 2.671875 0.09375 2.296875 0.09375 Z M 2.296875 0.09375 "/></g></g><g style="fill:#e4e2dd;fill-opacity:1;"><g transform="translate(16.261849, 15.580544)"><path style="stroke:none" d="M 0.515625 0 L 0.515625 -4.328125 L 1.5 -4.328125 L 1.5 -0.921875 L 3.390625 -0.921875 L 3.390625 0 Z M 0.515625 0 "/></g></g><g style="fill:#e4e2dd;fill-opacity:1;"><g transform="translate(22.879888, 15.580544)"><path style="stroke:none" d="M 0.515625 0 L 0.515625 -4.328125 L 1.5 -4.328125 L 1.5 -0.921875 L 3.390625 -0.921875 L 3.390625 0 Z M 0.515625 0 "/></g></g><g style="fill:#e4e2dd;fill-opacity:1;"><g transform="translate(29.497928, 15.580544)"><path style="stroke:none" d="M 2.03125 0.09375 C 1.664062 0.09375 1.351562 0.0351562 1.09375 -0.078125 C 0.832031 -0.203125 0.628906 -0.375 0.484375 -0.59375 C 0.335938 -0.820312 0.265625 -1.082031 0.265625 -1.375 L 1.234375 -1.375 C 1.234375 -1.175781 1.304688 -1.015625 1.453125 -0.890625 C 1.597656 -0.773438 1.785156 -0.71875 2.015625 -0.71875 C 2.222656 -0.71875 2.382812 -0.757812 2.5 -0.84375 C 2.625 -0.925781 2.6875 -1.039062 2.6875 -1.1875 C 2.6875 -1.332031 2.613281 -1.453125 2.46875 -1.546875 C 2.332031 -1.648438 2.109375 -1.734375 1.796875 -1.796875 C 1.296875 -1.898438 0.921875 -2.0625 0.671875 -2.28125 C 0.429688 -2.5 0.3125 -2.785156 0.3125 -3.140625 C 0.3125 -3.535156 0.453125 -3.847656 0.734375 -4.078125 C 1.023438 -4.304688 1.421875 -4.421875 1.921875 -4.421875 C 2.265625 -4.421875 2.5625 -4.359375 2.8125 -4.234375 C 3.0625 -4.117188 3.253906 -3.953125 3.390625 -3.734375 C 3.535156 -3.523438 3.609375 -3.273438 3.609375 -2.984375 L 2.65625 -2.984375 C 2.65625 -3.179688 2.59375 -3.332031 2.46875 -3.4375 C 2.34375 -3.550781 2.164062 -3.609375 1.9375 -3.609375 C 1.726562 -3.609375 1.5625 -3.566406 1.4375 -3.484375 C 1.320312 -3.410156 1.265625 -3.300781 1.265625 -3.15625 C 1.265625 -3.019531 1.332031 -2.90625 1.46875 -2.8125 C 1.601562 -2.726562 1.832031 -2.644531 2.15625 -2.5625 C 2.695312 -2.4375 3.085938 -2.265625 3.328125 -2.046875 C 3.566406 -1.835938 3.6875 -1.5625 3.6875 -1.21875 C 3.6875 -0.8125 3.535156 -0.488281 3.234375 -0.25 C 2.941406 -0.0195312 2.539062 0.09375 2.03125 0.09375 Z M 2.03125 0.09375 "/></g></g><g style="fill:#e4e2dd;fill-opacity:1;"><g transform="translate(36.517996, 15.580544)"><path style="stroke:none" d="M 3.203125 0 L 3.203125 -1.75 L 1.5 -1.75 L 1.5 0 L 0.515625 0 L 0.515625 -4.328125 L 1.5 -4.328125 L 1.5 -2.671875 L 3.203125 -2.671875 L 3.203125 -4.328125 L 4.1875 -4.328125 L 4.1875 0 Z M 3.203125 0 "/></g></g><g style="fill:#e4e2dd;fill-opacity:1;"><g transform="translate(44.274099, 15.580544)"><path style="stroke:none" d="M 0.515625 0 L 0.515625 -4.328125 L 1.5 -4.328125 L 1.5 0 Z M 0.515625 0 "/></g></g><g style="fill:#e4e2dd;fill-opacity:1;"><g transform="translate(49.352046, 15.580544)"><path style="stroke:none" d="M 1.5625 0 L 1.5625 -3.40625 L 0.1875 -3.40625 L 0.1875 -4.328125 L 3.921875 -4.328125 L 3.921875 -3.40625 L 2.546875 -3.40625 L 2.546875 0 Z M 1.5625 0 "/></g></g></g></g></g></svg>